%TF.GenerationSoftware,KiCad,Pcbnew,5.1.9+dfsg1-1+deb11u1*%
%TF.CreationDate,2023-02-15T16:28:34+00:00*%
%TF.ProjectId,bao-board,62616f2d-626f-4617-9264-2e6b69636164,rev?*%
%TF.SameCoordinates,Original*%
%TF.FileFunction,Soldermask,Top*%
%TF.FilePolarity,Negative*%
%FSLAX46Y46*%
G04 Gerber Fmt 4.6, Leading zero omitted, Abs format (unit mm)*
G04 Created by KiCad (PCBNEW 5.1.9+dfsg1-1+deb11u1) date 2023-02-15 16:28:34*
%MOMM*%
%LPD*%
G01*
G04 APERTURE LIST*
%ADD10R,2.400000X2.400000*%
%ADD11O,2.400000X2.400000*%
%ADD12O,2.000000X1.905000*%
%ADD13R,2.000000X1.905000*%
%ADD14O,3.500000X3.500000*%
%ADD15C,1.500000*%
%ADD16C,2.000000*%
%ADD17R,3.200000X3.200000*%
%ADD18O,1.700000X1.700000*%
%ADD19R,1.700000X1.700000*%
%ADD20C,1.600000*%
%ADD21C,0.800000*%
%ADD22C,6.400000*%
%ADD23R,1.500000X2.000000*%
%ADD24R,3.800000X2.000000*%
%ADD25C,3.500000*%
%ADD26C,1.700000*%
%ADD27C,6.000000*%
%ADD28O,1.600000X1.600000*%
%ADD29O,2.000000X2.000000*%
%ADD30R,2.000000X2.000000*%
%ADD31R,1.600000X1.600000*%
%ADD32O,3.200000X3.200000*%
%ADD33R,1.800000X1.800000*%
%ADD34O,1.800000X1.800000*%
%ADD35C,0.700000*%
%ADD36C,4.400000*%
%ADD37R,1.905000X2.000000*%
%ADD38O,1.905000X2.000000*%
%ADD39C,0.254000*%
%ADD40C,0.100000*%
G04 APERTURE END LIST*
D10*
%TO.C,C3*%
X139065000Y-109855000D03*
D11*
X114065000Y-109855000D03*
%TD*%
D10*
%TO.C,C2*%
X139065000Y-93345000D03*
D11*
X114065000Y-93345000D03*
%TD*%
D10*
%TO.C,C1*%
X139065000Y-76835000D03*
D11*
X114065000Y-76835000D03*
%TD*%
%TO.C,C10*%
X86550000Y-100950000D03*
D10*
X86550000Y-70950000D03*
%TD*%
D12*
%TO.C,Q12*%
X186029600Y-111760000D03*
X186029600Y-114300000D03*
D13*
X186029600Y-116840000D03*
D14*
X202689600Y-114300000D03*
%TD*%
D12*
%TO.C,Q11*%
X186029600Y-123164600D03*
X186029600Y-125704600D03*
D13*
X186029600Y-128244600D03*
D14*
X202689600Y-125704600D03*
%TD*%
D12*
%TO.C,Q10*%
X172110400Y-116840000D03*
X172110400Y-114300000D03*
D13*
X172110400Y-111760000D03*
D14*
X155450400Y-114300000D03*
%TD*%
D12*
%TO.C,Q9*%
X172108000Y-128270000D03*
X172108000Y-125730000D03*
D13*
X172108000Y-123190000D03*
D14*
X155448000Y-125730000D03*
%TD*%
D12*
%TO.C,Q8*%
X186029600Y-85090000D03*
X186029600Y-87630000D03*
D13*
X186029600Y-90170000D03*
D14*
X202689600Y-87630000D03*
%TD*%
D12*
%TO.C,Q7*%
X186029600Y-96520000D03*
X186029600Y-99060000D03*
D13*
X186029600Y-101600000D03*
D14*
X202689600Y-99060000D03*
%TD*%
D12*
%TO.C,Q6*%
X172133400Y-90170000D03*
X172133400Y-87630000D03*
D13*
X172133400Y-85090000D03*
D14*
X155473400Y-87630000D03*
%TD*%
D12*
%TO.C,Q5*%
X172110400Y-101600000D03*
X172110400Y-99060000D03*
D13*
X172110400Y-96520000D03*
D14*
X155450400Y-99060000D03*
%TD*%
D12*
%TO.C,Q4*%
X186029600Y-58420000D03*
X186029600Y-60960000D03*
D13*
X186029600Y-63500000D03*
D14*
X202689600Y-60960000D03*
%TD*%
D12*
%TO.C,Q3*%
X186029600Y-69850000D03*
X186029600Y-72390000D03*
D13*
X186029600Y-74930000D03*
D14*
X202689600Y-72390000D03*
%TD*%
D12*
%TO.C,Q2*%
X172110400Y-63500000D03*
X172110400Y-60960000D03*
D13*
X172110400Y-58420000D03*
D14*
X155450400Y-60960000D03*
%TD*%
D12*
%TO.C,Q1*%
X172110400Y-74930000D03*
X172110400Y-72390000D03*
D13*
X172110400Y-69850000D03*
D14*
X155450400Y-72390000D03*
%TD*%
D15*
%TO.C,Y1*%
X98100000Y-137880000D03*
X98100000Y-133000000D03*
%TD*%
D16*
%TO.C,SW1*%
X75438000Y-107800000D03*
X79938000Y-107800000D03*
X75438000Y-114300000D03*
X79938000Y-114300000D03*
%TD*%
%TO.C,R14*%
G36*
G01*
X91050000Y-131924999D02*
X91050000Y-133175001D01*
G75*
G02*
X90800001Y-133425000I-249999J0D01*
G01*
X89999999Y-133425000D01*
G75*
G02*
X89750000Y-133175001I0J249999D01*
G01*
X89750000Y-131924999D01*
G75*
G02*
X89999999Y-131675000I249999J0D01*
G01*
X90800001Y-131675000D01*
G75*
G02*
X91050000Y-131924999I0J-249999D01*
G01*
G37*
G36*
G01*
X94150000Y-131924999D02*
X94150000Y-133175001D01*
G75*
G02*
X93900001Y-133425000I-249999J0D01*
G01*
X93099999Y-133425000D01*
G75*
G02*
X92850000Y-133175001I0J249999D01*
G01*
X92850000Y-131924999D01*
G75*
G02*
X93099999Y-131675000I249999J0D01*
G01*
X93900001Y-131675000D01*
G75*
G02*
X94150000Y-131924999I0J-249999D01*
G01*
G37*
%TD*%
%TO.C,R13*%
G36*
G01*
X78878000Y-105273001D02*
X78878000Y-104022999D01*
G75*
G02*
X79127999Y-103773000I249999J0D01*
G01*
X79928001Y-103773000D01*
G75*
G02*
X80178000Y-104022999I0J-249999D01*
G01*
X80178000Y-105273001D01*
G75*
G02*
X79928001Y-105523000I-249999J0D01*
G01*
X79127999Y-105523000D01*
G75*
G02*
X78878000Y-105273001I0J249999D01*
G01*
G37*
G36*
G01*
X75778000Y-105273001D02*
X75778000Y-104022999D01*
G75*
G02*
X76027999Y-103773000I249999J0D01*
G01*
X76828001Y-103773000D01*
G75*
G02*
X77078000Y-104022999I0J-249999D01*
G01*
X77078000Y-105273001D01*
G75*
G02*
X76828001Y-105523000I-249999J0D01*
G01*
X76027999Y-105523000D01*
G75*
G02*
X75778000Y-105273001I0J249999D01*
G01*
G37*
%TD*%
%TO.C,H10*%
X79400000Y-121400000D03*
%TD*%
%TO.C,H9*%
X75800000Y-121400000D03*
%TD*%
%TO.C,C8*%
G36*
G01*
X105000000Y-138450002D02*
X105000000Y-137149998D01*
G75*
G02*
X105249998Y-136900000I249998J0D01*
G01*
X106075002Y-136900000D01*
G75*
G02*
X106325000Y-137149998I0J-249998D01*
G01*
X106325000Y-138450002D01*
G75*
G02*
X106075002Y-138700000I-249998J0D01*
G01*
X105249998Y-138700000D01*
G75*
G02*
X105000000Y-138450002I0J249998D01*
G01*
G37*
G36*
G01*
X101875000Y-138450002D02*
X101875000Y-137149998D01*
G75*
G02*
X102124998Y-136900000I249998J0D01*
G01*
X102950002Y-136900000D01*
G75*
G02*
X103200000Y-137149998I0J-249998D01*
G01*
X103200000Y-138450002D01*
G75*
G02*
X102950002Y-138700000I-249998J0D01*
G01*
X102124998Y-138700000D01*
G75*
G02*
X101875000Y-138450002I0J249998D01*
G01*
G37*
%TD*%
%TO.C,C7*%
G36*
G01*
X105000000Y-135700002D02*
X105000000Y-134399998D01*
G75*
G02*
X105249998Y-134150000I249998J0D01*
G01*
X106075002Y-134150000D01*
G75*
G02*
X106325000Y-134399998I0J-249998D01*
G01*
X106325000Y-135700002D01*
G75*
G02*
X106075002Y-135950000I-249998J0D01*
G01*
X105249998Y-135950000D01*
G75*
G02*
X105000000Y-135700002I0J249998D01*
G01*
G37*
G36*
G01*
X101875000Y-135700002D02*
X101875000Y-134399998D01*
G75*
G02*
X102124998Y-134150000I249998J0D01*
G01*
X102950002Y-134150000D01*
G75*
G02*
X103200000Y-134399998I0J-249998D01*
G01*
X103200000Y-135700002D01*
G75*
G02*
X102950002Y-135950000I-249998J0D01*
G01*
X102124998Y-135950000D01*
G75*
G02*
X101875000Y-135700002I0J249998D01*
G01*
G37*
%TD*%
%TO.C,U2*%
G36*
G01*
X87000000Y-122680000D02*
X87000000Y-121905000D01*
G75*
G02*
X87050000Y-121855000I50000J0D01*
G01*
X87150000Y-121855000D01*
G75*
G02*
X87200000Y-121905000I0J-50000D01*
G01*
X87200000Y-122680000D01*
G75*
G02*
X87150000Y-122730000I-50000J0D01*
G01*
X87050000Y-122730000D01*
G75*
G02*
X87000000Y-122680000I0J50000D01*
G01*
G37*
G36*
G01*
X91000000Y-122680000D02*
X91000000Y-121905000D01*
G75*
G02*
X91050000Y-121855000I50000J0D01*
G01*
X91150000Y-121855000D01*
G75*
G02*
X91200000Y-121905000I0J-50000D01*
G01*
X91200000Y-122680000D01*
G75*
G02*
X91150000Y-122730000I-50000J0D01*
G01*
X91050000Y-122730000D01*
G75*
G02*
X91000000Y-122680000I0J50000D01*
G01*
G37*
G36*
G01*
X88600000Y-129555000D02*
X88600000Y-128780000D01*
G75*
G02*
X88650000Y-128730000I50000J0D01*
G01*
X88750000Y-128730000D01*
G75*
G02*
X88800000Y-128780000I0J-50000D01*
G01*
X88800000Y-129555000D01*
G75*
G02*
X88750000Y-129605000I-50000J0D01*
G01*
X88650000Y-129605000D01*
G75*
G02*
X88600000Y-129555000I0J50000D01*
G01*
G37*
G36*
G01*
X85025000Y-126780000D02*
X85025000Y-126680000D01*
G75*
G02*
X85075000Y-126630000I50000J0D01*
G01*
X85850000Y-126630000D01*
G75*
G02*
X85900000Y-126680000I0J-50000D01*
G01*
X85900000Y-126780000D01*
G75*
G02*
X85850000Y-126830000I-50000J0D01*
G01*
X85075000Y-126830000D01*
G75*
G02*
X85025000Y-126780000I0J50000D01*
G01*
G37*
G36*
G01*
X85025000Y-127980000D02*
X85025000Y-127880000D01*
G75*
G02*
X85075000Y-127830000I50000J0D01*
G01*
X85850000Y-127830000D01*
G75*
G02*
X85900000Y-127880000I0J-50000D01*
G01*
X85900000Y-127980000D01*
G75*
G02*
X85850000Y-128030000I-50000J0D01*
G01*
X85075000Y-128030000D01*
G75*
G02*
X85025000Y-127980000I0J50000D01*
G01*
G37*
G36*
G01*
X90200000Y-129555000D02*
X90200000Y-128780000D01*
G75*
G02*
X90250000Y-128730000I50000J0D01*
G01*
X90350000Y-128730000D01*
G75*
G02*
X90400000Y-128780000I0J-50000D01*
G01*
X90400000Y-129555000D01*
G75*
G02*
X90350000Y-129605000I-50000J0D01*
G01*
X90250000Y-129605000D01*
G75*
G02*
X90200000Y-129555000I0J50000D01*
G01*
G37*
G36*
G01*
X85025000Y-128380000D02*
X85025000Y-128280000D01*
G75*
G02*
X85075000Y-128230000I50000J0D01*
G01*
X85850000Y-128230000D01*
G75*
G02*
X85900000Y-128280000I0J-50000D01*
G01*
X85900000Y-128380000D01*
G75*
G02*
X85850000Y-128430000I-50000J0D01*
G01*
X85075000Y-128430000D01*
G75*
G02*
X85025000Y-128380000I0J50000D01*
G01*
G37*
G36*
G01*
X86200000Y-129555000D02*
X86200000Y-128780000D01*
G75*
G02*
X86250000Y-128730000I50000J0D01*
G01*
X86350000Y-128730000D01*
G75*
G02*
X86400000Y-128780000I0J-50000D01*
G01*
X86400000Y-129555000D01*
G75*
G02*
X86350000Y-129605000I-50000J0D01*
G01*
X86250000Y-129605000D01*
G75*
G02*
X86200000Y-129555000I0J50000D01*
G01*
G37*
G36*
G01*
X91900000Y-123980000D02*
X91900000Y-123880000D01*
G75*
G02*
X91950000Y-123830000I50000J0D01*
G01*
X92725000Y-123830000D01*
G75*
G02*
X92775000Y-123880000I0J-50000D01*
G01*
X92775000Y-123980000D01*
G75*
G02*
X92725000Y-124030000I-50000J0D01*
G01*
X91950000Y-124030000D01*
G75*
G02*
X91900000Y-123980000I0J50000D01*
G01*
G37*
G36*
G01*
X89000000Y-122680000D02*
X89000000Y-121905000D01*
G75*
G02*
X89050000Y-121855000I50000J0D01*
G01*
X89150000Y-121855000D01*
G75*
G02*
X89200000Y-121905000I0J-50000D01*
G01*
X89200000Y-122680000D01*
G75*
G02*
X89150000Y-122730000I-50000J0D01*
G01*
X89050000Y-122730000D01*
G75*
G02*
X89000000Y-122680000I0J50000D01*
G01*
G37*
G36*
G01*
X91900000Y-126380000D02*
X91900000Y-126280000D01*
G75*
G02*
X91950000Y-126230000I50000J0D01*
G01*
X92725000Y-126230000D01*
G75*
G02*
X92775000Y-126280000I0J-50000D01*
G01*
X92775000Y-126380000D01*
G75*
G02*
X92725000Y-126430000I-50000J0D01*
G01*
X91950000Y-126430000D01*
G75*
G02*
X91900000Y-126380000I0J50000D01*
G01*
G37*
G36*
G01*
X91900000Y-123180000D02*
X91900000Y-123080000D01*
G75*
G02*
X91950000Y-123030000I50000J0D01*
G01*
X92725000Y-123030000D01*
G75*
G02*
X92775000Y-123080000I0J-50000D01*
G01*
X92775000Y-123180000D01*
G75*
G02*
X92725000Y-123230000I-50000J0D01*
G01*
X91950000Y-123230000D01*
G75*
G02*
X91900000Y-123180000I0J50000D01*
G01*
G37*
G36*
G01*
X87400000Y-122680000D02*
X87400000Y-121905000D01*
G75*
G02*
X87450000Y-121855000I50000J0D01*
G01*
X87550000Y-121855000D01*
G75*
G02*
X87600000Y-121905000I0J-50000D01*
G01*
X87600000Y-122680000D01*
G75*
G02*
X87550000Y-122730000I-50000J0D01*
G01*
X87450000Y-122730000D01*
G75*
G02*
X87400000Y-122680000I0J50000D01*
G01*
G37*
G36*
G01*
X86200000Y-122680000D02*
X86200000Y-121905000D01*
G75*
G02*
X86250000Y-121855000I50000J0D01*
G01*
X86350000Y-121855000D01*
G75*
G02*
X86400000Y-121905000I0J-50000D01*
G01*
X86400000Y-122680000D01*
G75*
G02*
X86350000Y-122730000I-50000J0D01*
G01*
X86250000Y-122730000D01*
G75*
G02*
X86200000Y-122680000I0J50000D01*
G01*
G37*
G36*
G01*
X87400000Y-129555000D02*
X87400000Y-128780000D01*
G75*
G02*
X87450000Y-128730000I50000J0D01*
G01*
X87550000Y-128730000D01*
G75*
G02*
X87600000Y-128780000I0J-50000D01*
G01*
X87600000Y-129555000D01*
G75*
G02*
X87550000Y-129605000I-50000J0D01*
G01*
X87450000Y-129605000D01*
G75*
G02*
X87400000Y-129555000I0J50000D01*
G01*
G37*
G36*
G01*
X91900000Y-125180000D02*
X91900000Y-125080000D01*
G75*
G02*
X91950000Y-125030000I50000J0D01*
G01*
X92725000Y-125030000D01*
G75*
G02*
X92775000Y-125080000I0J-50000D01*
G01*
X92775000Y-125180000D01*
G75*
G02*
X92725000Y-125230000I-50000J0D01*
G01*
X91950000Y-125230000D01*
G75*
G02*
X91900000Y-125180000I0J50000D01*
G01*
G37*
G36*
G01*
X91900000Y-125980000D02*
X91900000Y-125880000D01*
G75*
G02*
X91950000Y-125830000I50000J0D01*
G01*
X92725000Y-125830000D01*
G75*
G02*
X92775000Y-125880000I0J-50000D01*
G01*
X92775000Y-125980000D01*
G75*
G02*
X92725000Y-126030000I-50000J0D01*
G01*
X91950000Y-126030000D01*
G75*
G02*
X91900000Y-125980000I0J50000D01*
G01*
G37*
G36*
G01*
X90600000Y-122680000D02*
X90600000Y-121905000D01*
G75*
G02*
X90650000Y-121855000I50000J0D01*
G01*
X90750000Y-121855000D01*
G75*
G02*
X90800000Y-121905000I0J-50000D01*
G01*
X90800000Y-122680000D01*
G75*
G02*
X90750000Y-122730000I-50000J0D01*
G01*
X90650000Y-122730000D01*
G75*
G02*
X90600000Y-122680000I0J50000D01*
G01*
G37*
G36*
G01*
X91900000Y-123580000D02*
X91900000Y-123480000D01*
G75*
G02*
X91950000Y-123430000I50000J0D01*
G01*
X92725000Y-123430000D01*
G75*
G02*
X92775000Y-123480000I0J-50000D01*
G01*
X92775000Y-123580000D01*
G75*
G02*
X92725000Y-123630000I-50000J0D01*
G01*
X91950000Y-123630000D01*
G75*
G02*
X91900000Y-123580000I0J50000D01*
G01*
G37*
G36*
G01*
X87800000Y-129555000D02*
X87800000Y-128780000D01*
G75*
G02*
X87850000Y-128730000I50000J0D01*
G01*
X87950000Y-128730000D01*
G75*
G02*
X88000000Y-128780000I0J-50000D01*
G01*
X88000000Y-129555000D01*
G75*
G02*
X87950000Y-129605000I-50000J0D01*
G01*
X87850000Y-129605000D01*
G75*
G02*
X87800000Y-129555000I0J50000D01*
G01*
G37*
G36*
G01*
X85025000Y-125580000D02*
X85025000Y-125480000D01*
G75*
G02*
X85075000Y-125430000I50000J0D01*
G01*
X85850000Y-125430000D01*
G75*
G02*
X85900000Y-125480000I0J-50000D01*
G01*
X85900000Y-125580000D01*
G75*
G02*
X85850000Y-125630000I-50000J0D01*
G01*
X85075000Y-125630000D01*
G75*
G02*
X85025000Y-125580000I0J50000D01*
G01*
G37*
G36*
G01*
X91900000Y-124380000D02*
X91900000Y-124280000D01*
G75*
G02*
X91950000Y-124230000I50000J0D01*
G01*
X92725000Y-124230000D01*
G75*
G02*
X92775000Y-124280000I0J-50000D01*
G01*
X92775000Y-124380000D01*
G75*
G02*
X92725000Y-124430000I-50000J0D01*
G01*
X91950000Y-124430000D01*
G75*
G02*
X91900000Y-124380000I0J50000D01*
G01*
G37*
G36*
G01*
X91400000Y-122680000D02*
X91400000Y-121905000D01*
G75*
G02*
X91450000Y-121855000I50000J0D01*
G01*
X91550000Y-121855000D01*
G75*
G02*
X91600000Y-121905000I0J-50000D01*
G01*
X91600000Y-122680000D01*
G75*
G02*
X91550000Y-122730000I-50000J0D01*
G01*
X91450000Y-122730000D01*
G75*
G02*
X91400000Y-122680000I0J50000D01*
G01*
G37*
G36*
G01*
X85025000Y-124380000D02*
X85025000Y-124280000D01*
G75*
G02*
X85075000Y-124230000I50000J0D01*
G01*
X85850000Y-124230000D01*
G75*
G02*
X85900000Y-124280000I0J-50000D01*
G01*
X85900000Y-124380000D01*
G75*
G02*
X85850000Y-124430000I-50000J0D01*
G01*
X85075000Y-124430000D01*
G75*
G02*
X85025000Y-124380000I0J50000D01*
G01*
G37*
G36*
G01*
X91900000Y-126780000D02*
X91900000Y-126680000D01*
G75*
G02*
X91950000Y-126630000I50000J0D01*
G01*
X92725000Y-126630000D01*
G75*
G02*
X92775000Y-126680000I0J-50000D01*
G01*
X92775000Y-126780000D01*
G75*
G02*
X92725000Y-126830000I-50000J0D01*
G01*
X91950000Y-126830000D01*
G75*
G02*
X91900000Y-126780000I0J50000D01*
G01*
G37*
G36*
G01*
X86600000Y-122680000D02*
X86600000Y-121905000D01*
G75*
G02*
X86650000Y-121855000I50000J0D01*
G01*
X86750000Y-121855000D01*
G75*
G02*
X86800000Y-121905000I0J-50000D01*
G01*
X86800000Y-122680000D01*
G75*
G02*
X86750000Y-122730000I-50000J0D01*
G01*
X86650000Y-122730000D01*
G75*
G02*
X86600000Y-122680000I0J50000D01*
G01*
G37*
G36*
G01*
X85025000Y-125180000D02*
X85025000Y-125080000D01*
G75*
G02*
X85075000Y-125030000I50000J0D01*
G01*
X85850000Y-125030000D01*
G75*
G02*
X85900000Y-125080000I0J-50000D01*
G01*
X85900000Y-125180000D01*
G75*
G02*
X85850000Y-125230000I-50000J0D01*
G01*
X85075000Y-125230000D01*
G75*
G02*
X85025000Y-125180000I0J50000D01*
G01*
G37*
G36*
G01*
X88200000Y-122680000D02*
X88200000Y-121905000D01*
G75*
G02*
X88250000Y-121855000I50000J0D01*
G01*
X88350000Y-121855000D01*
G75*
G02*
X88400000Y-121905000I0J-50000D01*
G01*
X88400000Y-122680000D01*
G75*
G02*
X88350000Y-122730000I-50000J0D01*
G01*
X88250000Y-122730000D01*
G75*
G02*
X88200000Y-122680000I0J50000D01*
G01*
G37*
G36*
G01*
X85025000Y-124780000D02*
X85025000Y-124680000D01*
G75*
G02*
X85075000Y-124630000I50000J0D01*
G01*
X85850000Y-124630000D01*
G75*
G02*
X85900000Y-124680000I0J-50000D01*
G01*
X85900000Y-124780000D01*
G75*
G02*
X85850000Y-124830000I-50000J0D01*
G01*
X85075000Y-124830000D01*
G75*
G02*
X85025000Y-124780000I0J50000D01*
G01*
G37*
G36*
G01*
X85025000Y-123180000D02*
X85025000Y-123080000D01*
G75*
G02*
X85075000Y-123030000I50000J0D01*
G01*
X85850000Y-123030000D01*
G75*
G02*
X85900000Y-123080000I0J-50000D01*
G01*
X85900000Y-123180000D01*
G75*
G02*
X85850000Y-123230000I-50000J0D01*
G01*
X85075000Y-123230000D01*
G75*
G02*
X85025000Y-123180000I0J50000D01*
G01*
G37*
G36*
G01*
X87800000Y-122680000D02*
X87800000Y-121905000D01*
G75*
G02*
X87850000Y-121855000I50000J0D01*
G01*
X87950000Y-121855000D01*
G75*
G02*
X88000000Y-121905000I0J-50000D01*
G01*
X88000000Y-122680000D01*
G75*
G02*
X87950000Y-122730000I-50000J0D01*
G01*
X87850000Y-122730000D01*
G75*
G02*
X87800000Y-122680000I0J50000D01*
G01*
G37*
G36*
G01*
X91900000Y-125580000D02*
X91900000Y-125480000D01*
G75*
G02*
X91950000Y-125430000I50000J0D01*
G01*
X92725000Y-125430000D01*
G75*
G02*
X92775000Y-125480000I0J-50000D01*
G01*
X92775000Y-125580000D01*
G75*
G02*
X92725000Y-125630000I-50000J0D01*
G01*
X91950000Y-125630000D01*
G75*
G02*
X91900000Y-125580000I0J50000D01*
G01*
G37*
G36*
G01*
X90200000Y-122680000D02*
X90200000Y-121905000D01*
G75*
G02*
X90250000Y-121855000I50000J0D01*
G01*
X90350000Y-121855000D01*
G75*
G02*
X90400000Y-121905000I0J-50000D01*
G01*
X90400000Y-122680000D01*
G75*
G02*
X90350000Y-122730000I-50000J0D01*
G01*
X90250000Y-122730000D01*
G75*
G02*
X90200000Y-122680000I0J50000D01*
G01*
G37*
G36*
G01*
X87000000Y-129555000D02*
X87000000Y-128780000D01*
G75*
G02*
X87050000Y-128730000I50000J0D01*
G01*
X87150000Y-128730000D01*
G75*
G02*
X87200000Y-128780000I0J-50000D01*
G01*
X87200000Y-129555000D01*
G75*
G02*
X87150000Y-129605000I-50000J0D01*
G01*
X87050000Y-129605000D01*
G75*
G02*
X87000000Y-129555000I0J50000D01*
G01*
G37*
G36*
G01*
X85025000Y-127180000D02*
X85025000Y-127080000D01*
G75*
G02*
X85075000Y-127030000I50000J0D01*
G01*
X85850000Y-127030000D01*
G75*
G02*
X85900000Y-127080000I0J-50000D01*
G01*
X85900000Y-127180000D01*
G75*
G02*
X85850000Y-127230000I-50000J0D01*
G01*
X85075000Y-127230000D01*
G75*
G02*
X85025000Y-127180000I0J50000D01*
G01*
G37*
G36*
G01*
X91900000Y-124780000D02*
X91900000Y-124680000D01*
G75*
G02*
X91950000Y-124630000I50000J0D01*
G01*
X92725000Y-124630000D01*
G75*
G02*
X92775000Y-124680000I0J-50000D01*
G01*
X92775000Y-124780000D01*
G75*
G02*
X92725000Y-124830000I-50000J0D01*
G01*
X91950000Y-124830000D01*
G75*
G02*
X91900000Y-124780000I0J50000D01*
G01*
G37*
G36*
G01*
X85025000Y-123980000D02*
X85025000Y-123880000D01*
G75*
G02*
X85075000Y-123830000I50000J0D01*
G01*
X85850000Y-123830000D01*
G75*
G02*
X85900000Y-123880000I0J-50000D01*
G01*
X85900000Y-123980000D01*
G75*
G02*
X85850000Y-124030000I-50000J0D01*
G01*
X85075000Y-124030000D01*
G75*
G02*
X85025000Y-123980000I0J50000D01*
G01*
G37*
G36*
G01*
X91900000Y-127980000D02*
X91900000Y-127880000D01*
G75*
G02*
X91950000Y-127830000I50000J0D01*
G01*
X92725000Y-127830000D01*
G75*
G02*
X92775000Y-127880000I0J-50000D01*
G01*
X92775000Y-127980000D01*
G75*
G02*
X92725000Y-128030000I-50000J0D01*
G01*
X91950000Y-128030000D01*
G75*
G02*
X91900000Y-127980000I0J50000D01*
G01*
G37*
D17*
X88900000Y-125730000D03*
G36*
G01*
X85025000Y-123580000D02*
X85025000Y-123480000D01*
G75*
G02*
X85075000Y-123430000I50000J0D01*
G01*
X85850000Y-123430000D01*
G75*
G02*
X85900000Y-123480000I0J-50000D01*
G01*
X85900000Y-123580000D01*
G75*
G02*
X85850000Y-123630000I-50000J0D01*
G01*
X85075000Y-123630000D01*
G75*
G02*
X85025000Y-123580000I0J50000D01*
G01*
G37*
G36*
G01*
X86600000Y-129555000D02*
X86600000Y-128780000D01*
G75*
G02*
X86650000Y-128730000I50000J0D01*
G01*
X86750000Y-128730000D01*
G75*
G02*
X86800000Y-128780000I0J-50000D01*
G01*
X86800000Y-129555000D01*
G75*
G02*
X86750000Y-129605000I-50000J0D01*
G01*
X86650000Y-129605000D01*
G75*
G02*
X86600000Y-129555000I0J50000D01*
G01*
G37*
G36*
G01*
X90600000Y-129555000D02*
X90600000Y-128780000D01*
G75*
G02*
X90650000Y-128730000I50000J0D01*
G01*
X90750000Y-128730000D01*
G75*
G02*
X90800000Y-128780000I0J-50000D01*
G01*
X90800000Y-129555000D01*
G75*
G02*
X90750000Y-129605000I-50000J0D01*
G01*
X90650000Y-129605000D01*
G75*
G02*
X90600000Y-129555000I0J50000D01*
G01*
G37*
G36*
G01*
X89800000Y-129555000D02*
X89800000Y-128780000D01*
G75*
G02*
X89850000Y-128730000I50000J0D01*
G01*
X89950000Y-128730000D01*
G75*
G02*
X90000000Y-128780000I0J-50000D01*
G01*
X90000000Y-129555000D01*
G75*
G02*
X89950000Y-129605000I-50000J0D01*
G01*
X89850000Y-129605000D01*
G75*
G02*
X89800000Y-129555000I0J50000D01*
G01*
G37*
G36*
G01*
X89400000Y-129555000D02*
X89400000Y-128780000D01*
G75*
G02*
X89450000Y-128730000I50000J0D01*
G01*
X89550000Y-128730000D01*
G75*
G02*
X89600000Y-128780000I0J-50000D01*
G01*
X89600000Y-129555000D01*
G75*
G02*
X89550000Y-129605000I-50000J0D01*
G01*
X89450000Y-129605000D01*
G75*
G02*
X89400000Y-129555000I0J50000D01*
G01*
G37*
G36*
G01*
X85025000Y-125980000D02*
X85025000Y-125880000D01*
G75*
G02*
X85075000Y-125830000I50000J0D01*
G01*
X85850000Y-125830000D01*
G75*
G02*
X85900000Y-125880000I0J-50000D01*
G01*
X85900000Y-125980000D01*
G75*
G02*
X85850000Y-126030000I-50000J0D01*
G01*
X85075000Y-126030000D01*
G75*
G02*
X85025000Y-125980000I0J50000D01*
G01*
G37*
G36*
G01*
X88600000Y-122680000D02*
X88600000Y-121905000D01*
G75*
G02*
X88650000Y-121855000I50000J0D01*
G01*
X88750000Y-121855000D01*
G75*
G02*
X88800000Y-121905000I0J-50000D01*
G01*
X88800000Y-122680000D01*
G75*
G02*
X88750000Y-122730000I-50000J0D01*
G01*
X88650000Y-122730000D01*
G75*
G02*
X88600000Y-122680000I0J50000D01*
G01*
G37*
G36*
G01*
X85025000Y-127580000D02*
X85025000Y-127480000D01*
G75*
G02*
X85075000Y-127430000I50000J0D01*
G01*
X85850000Y-127430000D01*
G75*
G02*
X85900000Y-127480000I0J-50000D01*
G01*
X85900000Y-127580000D01*
G75*
G02*
X85850000Y-127630000I-50000J0D01*
G01*
X85075000Y-127630000D01*
G75*
G02*
X85025000Y-127580000I0J50000D01*
G01*
G37*
G36*
G01*
X88200000Y-129555000D02*
X88200000Y-128780000D01*
G75*
G02*
X88250000Y-128730000I50000J0D01*
G01*
X88350000Y-128730000D01*
G75*
G02*
X88400000Y-128780000I0J-50000D01*
G01*
X88400000Y-129555000D01*
G75*
G02*
X88350000Y-129605000I-50000J0D01*
G01*
X88250000Y-129605000D01*
G75*
G02*
X88200000Y-129555000I0J50000D01*
G01*
G37*
G36*
G01*
X85025000Y-126380000D02*
X85025000Y-126280000D01*
G75*
G02*
X85075000Y-126230000I50000J0D01*
G01*
X85850000Y-126230000D01*
G75*
G02*
X85900000Y-126280000I0J-50000D01*
G01*
X85900000Y-126380000D01*
G75*
G02*
X85850000Y-126430000I-50000J0D01*
G01*
X85075000Y-126430000D01*
G75*
G02*
X85025000Y-126380000I0J50000D01*
G01*
G37*
G36*
G01*
X91900000Y-127180000D02*
X91900000Y-127080000D01*
G75*
G02*
X91950000Y-127030000I50000J0D01*
G01*
X92725000Y-127030000D01*
G75*
G02*
X92775000Y-127080000I0J-50000D01*
G01*
X92775000Y-127180000D01*
G75*
G02*
X92725000Y-127230000I-50000J0D01*
G01*
X91950000Y-127230000D01*
G75*
G02*
X91900000Y-127180000I0J50000D01*
G01*
G37*
G36*
G01*
X91900000Y-127580000D02*
X91900000Y-127480000D01*
G75*
G02*
X91950000Y-127430000I50000J0D01*
G01*
X92725000Y-127430000D01*
G75*
G02*
X92775000Y-127480000I0J-50000D01*
G01*
X92775000Y-127580000D01*
G75*
G02*
X92725000Y-127630000I-50000J0D01*
G01*
X91950000Y-127630000D01*
G75*
G02*
X91900000Y-127580000I0J50000D01*
G01*
G37*
G36*
G01*
X89400000Y-122680000D02*
X89400000Y-121905000D01*
G75*
G02*
X89450000Y-121855000I50000J0D01*
G01*
X89550000Y-121855000D01*
G75*
G02*
X89600000Y-121905000I0J-50000D01*
G01*
X89600000Y-122680000D01*
G75*
G02*
X89550000Y-122730000I-50000J0D01*
G01*
X89450000Y-122730000D01*
G75*
G02*
X89400000Y-122680000I0J50000D01*
G01*
G37*
G36*
G01*
X89000000Y-129555000D02*
X89000000Y-128780000D01*
G75*
G02*
X89050000Y-128730000I50000J0D01*
G01*
X89150000Y-128730000D01*
G75*
G02*
X89200000Y-128780000I0J-50000D01*
G01*
X89200000Y-129555000D01*
G75*
G02*
X89150000Y-129605000I-50000J0D01*
G01*
X89050000Y-129605000D01*
G75*
G02*
X89000000Y-129555000I0J50000D01*
G01*
G37*
G36*
G01*
X91000000Y-129555000D02*
X91000000Y-128780000D01*
G75*
G02*
X91050000Y-128730000I50000J0D01*
G01*
X91150000Y-128730000D01*
G75*
G02*
X91200000Y-128780000I0J-50000D01*
G01*
X91200000Y-129555000D01*
G75*
G02*
X91150000Y-129605000I-50000J0D01*
G01*
X91050000Y-129605000D01*
G75*
G02*
X91000000Y-129555000I0J50000D01*
G01*
G37*
G36*
G01*
X91400000Y-129555000D02*
X91400000Y-128780000D01*
G75*
G02*
X91450000Y-128730000I50000J0D01*
G01*
X91550000Y-128730000D01*
G75*
G02*
X91600000Y-128780000I0J-50000D01*
G01*
X91600000Y-129555000D01*
G75*
G02*
X91550000Y-129605000I-50000J0D01*
G01*
X91450000Y-129605000D01*
G75*
G02*
X91400000Y-129555000I0J50000D01*
G01*
G37*
G36*
G01*
X91900000Y-128380000D02*
X91900000Y-128280000D01*
G75*
G02*
X91950000Y-128230000I50000J0D01*
G01*
X92725000Y-128230000D01*
G75*
G02*
X92775000Y-128280000I0J-50000D01*
G01*
X92775000Y-128380000D01*
G75*
G02*
X92725000Y-128430000I-50000J0D01*
G01*
X91950000Y-128430000D01*
G75*
G02*
X91900000Y-128380000I0J50000D01*
G01*
G37*
G36*
G01*
X89800000Y-122680000D02*
X89800000Y-121905000D01*
G75*
G02*
X89850000Y-121855000I50000J0D01*
G01*
X89950000Y-121855000D01*
G75*
G02*
X90000000Y-121905000I0J-50000D01*
G01*
X90000000Y-122680000D01*
G75*
G02*
X89950000Y-122730000I-50000J0D01*
G01*
X89850000Y-122730000D01*
G75*
G02*
X89800000Y-122680000I0J50000D01*
G01*
G37*
%TD*%
%TO.C,R12*%
G36*
G01*
X114075001Y-116900000D02*
X112824999Y-116900000D01*
G75*
G02*
X112575000Y-116650001I0J249999D01*
G01*
X112575000Y-115849999D01*
G75*
G02*
X112824999Y-115600000I249999J0D01*
G01*
X114075001Y-115600000D01*
G75*
G02*
X114325000Y-115849999I0J-249999D01*
G01*
X114325000Y-116650001D01*
G75*
G02*
X114075001Y-116900000I-249999J0D01*
G01*
G37*
G36*
G01*
X114075001Y-120000000D02*
X112824999Y-120000000D01*
G75*
G02*
X112575000Y-119750001I0J249999D01*
G01*
X112575000Y-118949999D01*
G75*
G02*
X112824999Y-118700000I249999J0D01*
G01*
X114075001Y-118700000D01*
G75*
G02*
X114325000Y-118949999I0J-249999D01*
G01*
X114325000Y-119750001D01*
G75*
G02*
X114075001Y-120000000I-249999J0D01*
G01*
G37*
%TD*%
%TO.C,R11*%
G36*
G01*
X112800000Y-122525001D02*
X112800000Y-121274999D01*
G75*
G02*
X113049999Y-121025000I249999J0D01*
G01*
X113850001Y-121025000D01*
G75*
G02*
X114100000Y-121274999I0J-249999D01*
G01*
X114100000Y-122525001D01*
G75*
G02*
X113850001Y-122775000I-249999J0D01*
G01*
X113049999Y-122775000D01*
G75*
G02*
X112800000Y-122525001I0J249999D01*
G01*
G37*
G36*
G01*
X109700000Y-122525001D02*
X109700000Y-121274999D01*
G75*
G02*
X109949999Y-121025000I249999J0D01*
G01*
X110750001Y-121025000D01*
G75*
G02*
X111000000Y-121274999I0J-249999D01*
G01*
X111000000Y-122525001D01*
G75*
G02*
X110750001Y-122775000I-249999J0D01*
G01*
X109949999Y-122775000D01*
G75*
G02*
X109700000Y-122525001I0J249999D01*
G01*
G37*
%TD*%
D18*
%TO.C,J3*%
X132670000Y-133360000D03*
X132670000Y-135900000D03*
X130130000Y-133360000D03*
X130130000Y-135900000D03*
X127590000Y-133360000D03*
X127590000Y-135900000D03*
X125050000Y-133360000D03*
D19*
X125050000Y-135900000D03*
%TD*%
D18*
%TO.C,J2*%
X79720000Y-135600000D03*
X79720000Y-138140000D03*
X77180000Y-135600000D03*
X77180000Y-138140000D03*
X74640000Y-135600000D03*
X74640000Y-138140000D03*
X72100000Y-135600000D03*
D19*
X72100000Y-138140000D03*
%TD*%
%TO.C,D6*%
G36*
G01*
X108057000Y-118837000D02*
X108057000Y-120087000D01*
G75*
G02*
X107807000Y-120337000I-250000J0D01*
G01*
X106882000Y-120337000D01*
G75*
G02*
X106632000Y-120087000I0J250000D01*
G01*
X106632000Y-118837000D01*
G75*
G02*
X106882000Y-118587000I250000J0D01*
G01*
X107807000Y-118587000D01*
G75*
G02*
X108057000Y-118837000I0J-250000D01*
G01*
G37*
G36*
G01*
X111032000Y-118837000D02*
X111032000Y-120087000D01*
G75*
G02*
X110782000Y-120337000I-250000J0D01*
G01*
X109857000Y-120337000D01*
G75*
G02*
X109607000Y-120087000I0J250000D01*
G01*
X109607000Y-118837000D01*
G75*
G02*
X109857000Y-118587000I250000J0D01*
G01*
X110782000Y-118587000D01*
G75*
G02*
X111032000Y-118837000I0J-250000D01*
G01*
G37*
%TD*%
%TO.C,D5*%
G36*
G01*
X108057000Y-115637000D02*
X108057000Y-116887000D01*
G75*
G02*
X107807000Y-117137000I-250000J0D01*
G01*
X106882000Y-117137000D01*
G75*
G02*
X106632000Y-116887000I0J250000D01*
G01*
X106632000Y-115637000D01*
G75*
G02*
X106882000Y-115387000I250000J0D01*
G01*
X107807000Y-115387000D01*
G75*
G02*
X108057000Y-115637000I0J-250000D01*
G01*
G37*
G36*
G01*
X111032000Y-115637000D02*
X111032000Y-116887000D01*
G75*
G02*
X110782000Y-117137000I-250000J0D01*
G01*
X109857000Y-117137000D01*
G75*
G02*
X109607000Y-116887000I0J250000D01*
G01*
X109607000Y-115637000D01*
G75*
G02*
X109857000Y-115387000I250000J0D01*
G01*
X110782000Y-115387000D01*
G75*
G02*
X111032000Y-115637000I0J-250000D01*
G01*
G37*
%TD*%
D20*
%TO.C,C6*%
X86360000Y-115490000D03*
X86360000Y-110490000D03*
%TD*%
%TO.C,R10*%
G36*
G01*
X99577999Y-120343500D02*
X100828001Y-120343500D01*
G75*
G02*
X101078000Y-120593499I0J-249999D01*
G01*
X101078000Y-121393501D01*
G75*
G02*
X100828001Y-121643500I-249999J0D01*
G01*
X99577999Y-121643500D01*
G75*
G02*
X99328000Y-121393501I0J249999D01*
G01*
X99328000Y-120593499D01*
G75*
G02*
X99577999Y-120343500I249999J0D01*
G01*
G37*
G36*
G01*
X99577999Y-117243500D02*
X100828001Y-117243500D01*
G75*
G02*
X101078000Y-117493499I0J-249999D01*
G01*
X101078000Y-118293501D01*
G75*
G02*
X100828001Y-118543500I-249999J0D01*
G01*
X99577999Y-118543500D01*
G75*
G02*
X99328000Y-118293501I0J249999D01*
G01*
X99328000Y-117493499D01*
G75*
G02*
X99577999Y-117243500I249999J0D01*
G01*
G37*
%TD*%
%TO.C,R9*%
G36*
G01*
X98698480Y-125485999D02*
X98698480Y-126736001D01*
G75*
G02*
X98448481Y-126986000I-249999J0D01*
G01*
X97648479Y-126986000D01*
G75*
G02*
X97398480Y-126736001I0J249999D01*
G01*
X97398480Y-125485999D01*
G75*
G02*
X97648479Y-125236000I249999J0D01*
G01*
X98448481Y-125236000D01*
G75*
G02*
X98698480Y-125485999I0J-249999D01*
G01*
G37*
G36*
G01*
X101798480Y-125485999D02*
X101798480Y-126736001D01*
G75*
G02*
X101548481Y-126986000I-249999J0D01*
G01*
X100748479Y-126986000D01*
G75*
G02*
X100498480Y-126736001I0J249999D01*
G01*
X100498480Y-125485999D01*
G75*
G02*
X100748479Y-125236000I249999J0D01*
G01*
X101548481Y-125236000D01*
G75*
G02*
X101798480Y-125485999I0J-249999D01*
G01*
G37*
%TD*%
%TO.C,R8*%
G36*
G01*
X102900641Y-118551120D02*
X101650639Y-118551120D01*
G75*
G02*
X101400640Y-118301121I0J249999D01*
G01*
X101400640Y-117501119D01*
G75*
G02*
X101650639Y-117251120I249999J0D01*
G01*
X102900641Y-117251120D01*
G75*
G02*
X103150640Y-117501119I0J-249999D01*
G01*
X103150640Y-118301121D01*
G75*
G02*
X102900641Y-118551120I-249999J0D01*
G01*
G37*
G36*
G01*
X102900641Y-121651120D02*
X101650639Y-121651120D01*
G75*
G02*
X101400640Y-121401121I0J249999D01*
G01*
X101400640Y-120601119D01*
G75*
G02*
X101650639Y-120351120I249999J0D01*
G01*
X102900641Y-120351120D01*
G75*
G02*
X103150640Y-120601119I0J-249999D01*
G01*
X103150640Y-121401121D01*
G75*
G02*
X102900641Y-121651120I-249999J0D01*
G01*
G37*
%TD*%
%TO.C,R7*%
G36*
G01*
X100494000Y-124569381D02*
X100494000Y-123319379D01*
G75*
G02*
X100743999Y-123069380I249999J0D01*
G01*
X101544001Y-123069380D01*
G75*
G02*
X101794000Y-123319379I0J-249999D01*
G01*
X101794000Y-124569381D01*
G75*
G02*
X101544001Y-124819380I-249999J0D01*
G01*
X100743999Y-124819380D01*
G75*
G02*
X100494000Y-124569381I0J249999D01*
G01*
G37*
G36*
G01*
X97394000Y-124569381D02*
X97394000Y-123319379D01*
G75*
G02*
X97643999Y-123069380I249999J0D01*
G01*
X98444001Y-123069380D01*
G75*
G02*
X98694000Y-123319379I0J-249999D01*
G01*
X98694000Y-124569381D01*
G75*
G02*
X98444001Y-124819380I-249999J0D01*
G01*
X97643999Y-124819380D01*
G75*
G02*
X97394000Y-124569381I0J249999D01*
G01*
G37*
%TD*%
D21*
%TO.C,REF\u002A\u002A*%
X75992056Y-56722944D03*
X74295000Y-56020000D03*
X72597944Y-56722944D03*
X71895000Y-58420000D03*
X72597944Y-60117056D03*
X74295000Y-60820000D03*
X75992056Y-60117056D03*
X76695000Y-58420000D03*
D22*
X74295000Y-58420000D03*
%TD*%
D21*
%TO.C,REF\u002A\u002A*%
X75992056Y-126572944D03*
X74295000Y-125870000D03*
X72597944Y-126572944D03*
X71895000Y-128270000D03*
X72597944Y-129967056D03*
X74295000Y-130670000D03*
X75992056Y-129967056D03*
X76695000Y-128270000D03*
D22*
X74295000Y-128270000D03*
%TD*%
D23*
%TO.C,U3*%
X71360000Y-100305000D03*
X75960000Y-100305000D03*
X73660000Y-100305000D03*
D24*
X73660000Y-94005000D03*
%TD*%
D25*
%TO.C,J1*%
X108225000Y-131829000D03*
X120265000Y-131829000D03*
D26*
X115495000Y-129119000D03*
X112995000Y-129119000D03*
X112995000Y-127119000D03*
D19*
X115495000Y-127119000D03*
%TD*%
D16*
%TO.C,H8*%
X90800000Y-138100000D03*
%TD*%
%TO.C,H7*%
X87300000Y-138100000D03*
%TD*%
%TO.C,H6*%
X83685000Y-138049000D03*
%TD*%
D20*
%TO.C,C5*%
X72400000Y-51200000D03*
X77400000Y-51200000D03*
%TD*%
%TO.C,C4*%
X75010000Y-118110000D03*
X80010000Y-118110000D03*
%TD*%
D21*
%TO.C,REF\u002A\u002A*%
X215692056Y-56722944D03*
X213995000Y-56020000D03*
X212297944Y-56722944D03*
X211595000Y-58420000D03*
X212297944Y-60117056D03*
X213995000Y-60820000D03*
X215692056Y-60117056D03*
X216395000Y-58420000D03*
D22*
X213995000Y-58420000D03*
%TD*%
D21*
%TO.C,REF\u002A\u002A*%
X215692056Y-126572944D03*
X213995000Y-125870000D03*
X212297944Y-126572944D03*
X211595000Y-128270000D03*
X212297944Y-129967056D03*
X213995000Y-130670000D03*
X215692056Y-129967056D03*
X216395000Y-128270000D03*
D22*
X213995000Y-128270000D03*
%TD*%
D21*
%TO.C,H3*%
X215585990Y-101279010D03*
X213995000Y-100620000D03*
X212404010Y-101279010D03*
X211745000Y-102870000D03*
X212404010Y-104460990D03*
X213995000Y-105120000D03*
X215585990Y-104460990D03*
X216245000Y-102870000D03*
D27*
X213995000Y-102870000D03*
%TD*%
D21*
%TO.C,H2*%
X215585990Y-91754010D03*
X213995000Y-91095000D03*
X212404010Y-91754010D03*
X211745000Y-93345000D03*
X212404010Y-94935990D03*
X213995000Y-95595000D03*
X215585990Y-94935990D03*
X216245000Y-93345000D03*
D27*
X213995000Y-93345000D03*
%TD*%
D21*
%TO.C,H1*%
X215585990Y-82229010D03*
X213995000Y-81570000D03*
X212404010Y-82229010D03*
X211745000Y-83820000D03*
X212404010Y-85410990D03*
X213995000Y-86070000D03*
X215585990Y-85410990D03*
X216245000Y-83820000D03*
D27*
X213995000Y-83820000D03*
%TD*%
D22*
%TO.C,REF\u002A\u002A*%
X144145000Y-128270000D03*
D21*
X146545000Y-128270000D03*
X145842056Y-129967056D03*
X144145000Y-130670000D03*
X142447944Y-129967056D03*
X141745000Y-128270000D03*
X142447944Y-126572944D03*
X144145000Y-125870000D03*
X145842056Y-126572944D03*
%TD*%
D22*
%TO.C,REF\u002A\u002A*%
X144145000Y-58420000D03*
D21*
X146545000Y-58420000D03*
X145842056Y-60117056D03*
X144145000Y-60820000D03*
X142447944Y-60117056D03*
X141745000Y-58420000D03*
X142447944Y-56722944D03*
X144145000Y-56020000D03*
X145842056Y-56722944D03*
%TD*%
%TO.C,H5*%
X184791980Y-135569010D03*
X183200990Y-134910000D03*
X181610000Y-135569010D03*
X180950990Y-137160000D03*
X181610000Y-138750990D03*
X183200990Y-139410000D03*
X184791980Y-138750990D03*
X185450990Y-137160000D03*
D27*
X183200990Y-137160000D03*
%TD*%
D21*
%TO.C,H4*%
X176530000Y-135569010D03*
X174939010Y-134910000D03*
X173348020Y-135569010D03*
X172689010Y-137160000D03*
X173348020Y-138750990D03*
X174939010Y-139410000D03*
X176530000Y-138750990D03*
X177189010Y-137160000D03*
D27*
X174939010Y-137160000D03*
%TD*%
D28*
%TO.C,R6*%
X132715000Y-116840000D03*
D20*
X142875000Y-116840000D03*
%TD*%
D28*
%TO.C,R5*%
X145415000Y-96520000D03*
D20*
X145415000Y-86360000D03*
%TD*%
D28*
%TO.C,R4*%
X113640000Y-84500000D03*
D20*
X123800000Y-84500000D03*
%TD*%
D28*
%TO.C,R3*%
X132715000Y-122682000D03*
D20*
X142875000Y-122682000D03*
%TD*%
D28*
%TO.C,R2*%
X145415000Y-110490000D03*
D20*
X145415000Y-100330000D03*
%TD*%
D28*
%TO.C,R1*%
X145415000Y-82550000D03*
D20*
X145415000Y-72390000D03*
%TD*%
D29*
%TO.C,D3*%
X128905000Y-102870000D03*
D30*
X139065000Y-102870000D03*
%TD*%
D29*
%TO.C,D2*%
X128905000Y-86360000D03*
D30*
X139065000Y-86360000D03*
%TD*%
D29*
%TO.C,D1*%
X128905000Y-69850000D03*
D30*
X139065000Y-69850000D03*
%TD*%
D31*
%TO.C,U1*%
X93726000Y-74295000D03*
D28*
X108966000Y-107315000D03*
X93726000Y-76835000D03*
X108966000Y-104775000D03*
X93726000Y-79375000D03*
X108966000Y-102235000D03*
X93726000Y-81915000D03*
X108966000Y-99695000D03*
X93726000Y-84455000D03*
X108966000Y-97155000D03*
X93726000Y-86995000D03*
X108966000Y-94615000D03*
X93726000Y-89535000D03*
X108966000Y-92075000D03*
X93726000Y-92075000D03*
X108966000Y-89535000D03*
X93726000Y-94615000D03*
X108966000Y-86995000D03*
X93726000Y-97155000D03*
X108966000Y-84455000D03*
X93726000Y-99695000D03*
X108966000Y-81915000D03*
X93726000Y-102235000D03*
X108966000Y-79375000D03*
X93726000Y-104775000D03*
X108966000Y-76835000D03*
X93726000Y-107315000D03*
X108966000Y-74295000D03*
%TD*%
D10*
%TO.C,C9*%
X137277000Y-49657000D03*
D11*
X112277000Y-49657000D03*
%TD*%
D17*
%TO.C,D4*%
X81661000Y-51181000D03*
D32*
X81661000Y-66421000D03*
%TD*%
D16*
%TO.C,L1*%
X85700000Y-57200000D03*
X93200000Y-57200000D03*
%TD*%
D14*
%TO.C,U4*%
X118186000Y-59973000D03*
D33*
X134366000Y-63373000D03*
D34*
X138166000Y-61673000D03*
X134366000Y-59973000D03*
X138166000Y-58273000D03*
X134366000Y-56573000D03*
%TD*%
D35*
%TO.C,H11*%
X141882726Y-135955274D03*
X140716000Y-135472000D03*
X139549274Y-135955274D03*
X139066000Y-137122000D03*
X139549274Y-138288726D03*
X140716000Y-138772000D03*
X141882726Y-138288726D03*
X142366000Y-137122000D03*
D36*
X140716000Y-137122000D03*
%TD*%
D35*
%TO.C,H13*%
X147866726Y-135955274D03*
X146700000Y-135472000D03*
X145533274Y-135955274D03*
X145050000Y-137122000D03*
X145533274Y-138288726D03*
X146700000Y-138772000D03*
X147866726Y-138288726D03*
X148350000Y-137122000D03*
D36*
X146700000Y-137122000D03*
%TD*%
%TO.C,U5*%
G36*
G01*
X89050000Y-113433500D02*
X89050000Y-113133500D01*
G75*
G02*
X89200000Y-112983500I150000J0D01*
G01*
X90850000Y-112983500D01*
G75*
G02*
X91000000Y-113133500I0J-150000D01*
G01*
X91000000Y-113433500D01*
G75*
G02*
X90850000Y-113583500I-150000J0D01*
G01*
X89200000Y-113583500D01*
G75*
G02*
X89050000Y-113433500I0J150000D01*
G01*
G37*
G36*
G01*
X89050000Y-114703500D02*
X89050000Y-114403500D01*
G75*
G02*
X89200000Y-114253500I150000J0D01*
G01*
X90850000Y-114253500D01*
G75*
G02*
X91000000Y-114403500I0J-150000D01*
G01*
X91000000Y-114703500D01*
G75*
G02*
X90850000Y-114853500I-150000J0D01*
G01*
X89200000Y-114853500D01*
G75*
G02*
X89050000Y-114703500I0J150000D01*
G01*
G37*
G36*
G01*
X89050000Y-115973500D02*
X89050000Y-115673500D01*
G75*
G02*
X89200000Y-115523500I150000J0D01*
G01*
X90850000Y-115523500D01*
G75*
G02*
X91000000Y-115673500I0J-150000D01*
G01*
X91000000Y-115973500D01*
G75*
G02*
X90850000Y-116123500I-150000J0D01*
G01*
X89200000Y-116123500D01*
G75*
G02*
X89050000Y-115973500I0J150000D01*
G01*
G37*
G36*
G01*
X89050000Y-117243500D02*
X89050000Y-116943500D01*
G75*
G02*
X89200000Y-116793500I150000J0D01*
G01*
X90850000Y-116793500D01*
G75*
G02*
X91000000Y-116943500I0J-150000D01*
G01*
X91000000Y-117243500D01*
G75*
G02*
X90850000Y-117393500I-150000J0D01*
G01*
X89200000Y-117393500D01*
G75*
G02*
X89050000Y-117243500I0J150000D01*
G01*
G37*
G36*
G01*
X94000000Y-117243500D02*
X94000000Y-116943500D01*
G75*
G02*
X94150000Y-116793500I150000J0D01*
G01*
X95800000Y-116793500D01*
G75*
G02*
X95950000Y-116943500I0J-150000D01*
G01*
X95950000Y-117243500D01*
G75*
G02*
X95800000Y-117393500I-150000J0D01*
G01*
X94150000Y-117393500D01*
G75*
G02*
X94000000Y-117243500I0J150000D01*
G01*
G37*
G36*
G01*
X94000000Y-115973500D02*
X94000000Y-115673500D01*
G75*
G02*
X94150000Y-115523500I150000J0D01*
G01*
X95800000Y-115523500D01*
G75*
G02*
X95950000Y-115673500I0J-150000D01*
G01*
X95950000Y-115973500D01*
G75*
G02*
X95800000Y-116123500I-150000J0D01*
G01*
X94150000Y-116123500D01*
G75*
G02*
X94000000Y-115973500I0J150000D01*
G01*
G37*
G36*
G01*
X94000000Y-114703500D02*
X94000000Y-114403500D01*
G75*
G02*
X94150000Y-114253500I150000J0D01*
G01*
X95800000Y-114253500D01*
G75*
G02*
X95950000Y-114403500I0J-150000D01*
G01*
X95950000Y-114703500D01*
G75*
G02*
X95800000Y-114853500I-150000J0D01*
G01*
X94150000Y-114853500D01*
G75*
G02*
X94000000Y-114703500I0J150000D01*
G01*
G37*
G36*
G01*
X94000000Y-113433500D02*
X94000000Y-113133500D01*
G75*
G02*
X94150000Y-112983500I150000J0D01*
G01*
X95800000Y-112983500D01*
G75*
G02*
X95950000Y-113133500I0J-150000D01*
G01*
X95950000Y-113433500D01*
G75*
G02*
X95800000Y-113583500I-150000J0D01*
G01*
X94150000Y-113583500D01*
G75*
G02*
X94000000Y-113433500I0J150000D01*
G01*
G37*
%TD*%
D14*
%TO.C,U6*%
X75190000Y-83010000D03*
D37*
X77730000Y-66350000D03*
D38*
X75190000Y-66350000D03*
X72650000Y-66350000D03*
%TD*%
D39*
X187198000Y-60377606D02*
X187198000Y-61542394D01*
X186636925Y-62103469D01*
X180998866Y-62153805D01*
X180974112Y-62156466D01*
X180950354Y-62163906D01*
X180928503Y-62175837D01*
X180909993Y-62191202D01*
X179946054Y-63159537D01*
X178911764Y-64158658D01*
X178895639Y-64177627D01*
X178883525Y-64199377D01*
X178875887Y-64223073D01*
X178873000Y-64250000D01*
X178873000Y-66750000D01*
X178875440Y-66774776D01*
X178882667Y-66798601D01*
X178894403Y-66820557D01*
X178910197Y-66839803D01*
X181123000Y-69052606D01*
X181123000Y-71020000D01*
X181125440Y-71044776D01*
X181132667Y-71068601D01*
X181144403Y-71090557D01*
X181160197Y-71109803D01*
X181179443Y-71125597D01*
X181201399Y-71137333D01*
X181225224Y-71144560D01*
X181250467Y-71146999D01*
X186631050Y-71127217D01*
X187198000Y-71801307D01*
X187198000Y-72972394D01*
X186637394Y-73533000D01*
X180975000Y-73533000D01*
X180950224Y-73535440D01*
X180926399Y-73542667D01*
X180904443Y-73554403D01*
X180885197Y-73570197D01*
X178382394Y-76073000D01*
X171502606Y-76073000D01*
X170942000Y-75512394D01*
X170942000Y-74347606D01*
X171502606Y-73787000D01*
X177250000Y-73787000D01*
X177274776Y-73784560D01*
X177298601Y-73777333D01*
X177320557Y-73765597D01*
X177336984Y-73752536D01*
X178836984Y-72342536D01*
X178853365Y-72323788D01*
X178865774Y-72302205D01*
X178873734Y-72278615D01*
X178877000Y-72250000D01*
X178877000Y-70000000D01*
X178874560Y-69975224D01*
X178867333Y-69951399D01*
X178855597Y-69929443D01*
X178839803Y-69910197D01*
X176627000Y-67697394D01*
X176627000Y-64760000D01*
X176624560Y-64735224D01*
X176617333Y-64711399D01*
X176605597Y-64689443D01*
X176589803Y-64670197D01*
X176570557Y-64654403D01*
X176548601Y-64642667D01*
X176524776Y-64635440D01*
X176499749Y-64633000D01*
X171502502Y-64642896D01*
X170942000Y-64082394D01*
X170942000Y-62917606D01*
X171502606Y-62357000D01*
X177165000Y-62357000D01*
X177189776Y-62354560D01*
X177213601Y-62347333D01*
X177235557Y-62335597D01*
X177254803Y-62319803D01*
X179757606Y-59817000D01*
X186637394Y-59817000D01*
X187198000Y-60377606D01*
D40*
G36*
X187198000Y-60377606D02*
G01*
X187198000Y-61542394D01*
X186636925Y-62103469D01*
X180998866Y-62153805D01*
X180974112Y-62156466D01*
X180950354Y-62163906D01*
X180928503Y-62175837D01*
X180909993Y-62191202D01*
X179946054Y-63159537D01*
X178911764Y-64158658D01*
X178895639Y-64177627D01*
X178883525Y-64199377D01*
X178875887Y-64223073D01*
X178873000Y-64250000D01*
X178873000Y-66750000D01*
X178875440Y-66774776D01*
X178882667Y-66798601D01*
X178894403Y-66820557D01*
X178910197Y-66839803D01*
X181123000Y-69052606D01*
X181123000Y-71020000D01*
X181125440Y-71044776D01*
X181132667Y-71068601D01*
X181144403Y-71090557D01*
X181160197Y-71109803D01*
X181179443Y-71125597D01*
X181201399Y-71137333D01*
X181225224Y-71144560D01*
X181250467Y-71146999D01*
X186631050Y-71127217D01*
X187198000Y-71801307D01*
X187198000Y-72972394D01*
X186637394Y-73533000D01*
X180975000Y-73533000D01*
X180950224Y-73535440D01*
X180926399Y-73542667D01*
X180904443Y-73554403D01*
X180885197Y-73570197D01*
X178382394Y-76073000D01*
X171502606Y-76073000D01*
X170942000Y-75512394D01*
X170942000Y-74347606D01*
X171502606Y-73787000D01*
X177250000Y-73787000D01*
X177274776Y-73784560D01*
X177298601Y-73777333D01*
X177320557Y-73765597D01*
X177336984Y-73752536D01*
X178836984Y-72342536D01*
X178853365Y-72323788D01*
X178865774Y-72302205D01*
X178873734Y-72278615D01*
X178877000Y-72250000D01*
X178877000Y-70000000D01*
X178874560Y-69975224D01*
X178867333Y-69951399D01*
X178855597Y-69929443D01*
X178839803Y-69910197D01*
X176627000Y-67697394D01*
X176627000Y-64760000D01*
X176624560Y-64735224D01*
X176617333Y-64711399D01*
X176605597Y-64689443D01*
X176589803Y-64670197D01*
X176570557Y-64654403D01*
X176548601Y-64642667D01*
X176524776Y-64635440D01*
X176499749Y-64633000D01*
X171502502Y-64642896D01*
X170942000Y-64082394D01*
X170942000Y-62917606D01*
X171502606Y-62357000D01*
X177165000Y-62357000D01*
X177189776Y-62354560D01*
X177213601Y-62347333D01*
X177235557Y-62335597D01*
X177254803Y-62319803D01*
X179757606Y-59817000D01*
X186637394Y-59817000D01*
X187198000Y-60377606D01*
G37*
D39*
X112429925Y-112482471D02*
X112448759Y-112498753D01*
X112470408Y-112511048D01*
X112494039Y-112518884D01*
X112522000Y-112522000D01*
X116024657Y-112522000D01*
X128687313Y-125437909D01*
X128706401Y-125453893D01*
X128728240Y-125465846D01*
X128751992Y-125473308D01*
X128778000Y-125476000D01*
X131826000Y-125476000D01*
X131826000Y-126242617D01*
X128575011Y-126363024D01*
X115660240Y-113321637D01*
X115641072Y-113305749D01*
X115619173Y-113293906D01*
X115595384Y-113286563D01*
X115570000Y-113284000D01*
X112066606Y-113284000D01*
X109817803Y-111035197D01*
X109798557Y-111019403D01*
X109776601Y-111007667D01*
X109752776Y-111000440D01*
X109728000Y-110998000D01*
X109121614Y-110998000D01*
X109096214Y-109982000D01*
X110054478Y-109982000D01*
X112429925Y-112482471D01*
D40*
G36*
X112429925Y-112482471D02*
G01*
X112448759Y-112498753D01*
X112470408Y-112511048D01*
X112494039Y-112518884D01*
X112522000Y-112522000D01*
X116024657Y-112522000D01*
X128687313Y-125437909D01*
X128706401Y-125453893D01*
X128728240Y-125465846D01*
X128751992Y-125473308D01*
X128778000Y-125476000D01*
X131826000Y-125476000D01*
X131826000Y-126242617D01*
X128575011Y-126363024D01*
X115660240Y-113321637D01*
X115641072Y-113305749D01*
X115619173Y-113293906D01*
X115595384Y-113286563D01*
X115570000Y-113284000D01*
X112066606Y-113284000D01*
X109817803Y-111035197D01*
X109798557Y-111019403D01*
X109776601Y-111007667D01*
X109752776Y-111000440D01*
X109728000Y-110998000D01*
X109121614Y-110998000D01*
X109096214Y-109982000D01*
X110054478Y-109982000D01*
X112429925Y-112482471D01*
G37*
D39*
X136525000Y-126671606D02*
X136525000Y-141097000D01*
X135763000Y-141097000D01*
X135763000Y-127000000D01*
X135760560Y-126975224D01*
X135753333Y-126951399D01*
X135741597Y-126929443D01*
X135725803Y-126910197D01*
X135090803Y-126275197D01*
X135071557Y-126259403D01*
X135049601Y-126247667D01*
X135025776Y-126240440D01*
X135001000Y-126238000D01*
X131826000Y-126238000D01*
X131826000Y-125476000D01*
X135329394Y-125476000D01*
X136525000Y-126671606D01*
D40*
G36*
X136525000Y-126671606D02*
G01*
X136525000Y-141097000D01*
X135763000Y-141097000D01*
X135763000Y-127000000D01*
X135760560Y-126975224D01*
X135753333Y-126951399D01*
X135741597Y-126929443D01*
X135725803Y-126910197D01*
X135090803Y-126275197D01*
X135071557Y-126259403D01*
X135049601Y-126247667D01*
X135025776Y-126240440D01*
X135001000Y-126238000D01*
X131826000Y-126238000D01*
X131826000Y-125476000D01*
X135329394Y-125476000D01*
X136525000Y-126671606D01*
G37*
D39*
X103632000Y-104214394D02*
X102563394Y-105283000D01*
X92800000Y-105283000D01*
X92775224Y-105285440D01*
X92751399Y-105292667D01*
X92729443Y-105304403D01*
X92710608Y-105319788D01*
X91610608Y-106409788D01*
X91594727Y-106428961D01*
X91582890Y-106450864D01*
X91575555Y-106474655D01*
X91573001Y-106499536D01*
X91567001Y-108140036D01*
X91567009Y-108141995D01*
X91573009Y-108651495D01*
X91575741Y-108676241D01*
X91583248Y-108699979D01*
X91595242Y-108721796D01*
X91610011Y-108739616D01*
X92810011Y-109944616D01*
X92829223Y-109960450D01*
X92851155Y-109972231D01*
X92874965Y-109979508D01*
X92900000Y-109982000D01*
X109093000Y-109982000D01*
X109093000Y-110998000D01*
X92202584Y-110998000D01*
X90551000Y-109347372D01*
X90551000Y-106224606D01*
X92508606Y-104267000D01*
X102362000Y-104267000D01*
X102386776Y-104264560D01*
X102410601Y-104257333D01*
X102432557Y-104245597D01*
X102451803Y-104229803D01*
X102705803Y-103975803D01*
X102721597Y-103956557D01*
X102733333Y-103934601D01*
X102740560Y-103910776D01*
X102743000Y-103886000D01*
X102743000Y-101854000D01*
X103632000Y-101854000D01*
X103632000Y-104214394D01*
D40*
G36*
X103632000Y-104214394D02*
G01*
X102563394Y-105283000D01*
X92800000Y-105283000D01*
X92775224Y-105285440D01*
X92751399Y-105292667D01*
X92729443Y-105304403D01*
X92710608Y-105319788D01*
X91610608Y-106409788D01*
X91594727Y-106428961D01*
X91582890Y-106450864D01*
X91575555Y-106474655D01*
X91573001Y-106499536D01*
X91567001Y-108140036D01*
X91567009Y-108141995D01*
X91573009Y-108651495D01*
X91575741Y-108676241D01*
X91583248Y-108699979D01*
X91595242Y-108721796D01*
X91610011Y-108739616D01*
X92810011Y-109944616D01*
X92829223Y-109960450D01*
X92851155Y-109972231D01*
X92874965Y-109979508D01*
X92900000Y-109982000D01*
X109093000Y-109982000D01*
X109093000Y-110998000D01*
X92202584Y-110998000D01*
X90551000Y-109347372D01*
X90551000Y-106224606D01*
X92508606Y-104267000D01*
X102362000Y-104267000D01*
X102386776Y-104264560D01*
X102410601Y-104257333D01*
X102432557Y-104245597D01*
X102451803Y-104229803D01*
X102705803Y-103975803D01*
X102721597Y-103956557D01*
X102733333Y-103934601D01*
X102740560Y-103910776D01*
X102743000Y-103886000D01*
X102743000Y-101854000D01*
X103632000Y-101854000D01*
X103632000Y-104214394D01*
G37*
D39*
X121158000Y-68707000D02*
X106807000Y-68707000D01*
X106782224Y-68709440D01*
X106758399Y-68716667D01*
X106736443Y-68728403D01*
X106717197Y-68744197D01*
X103669197Y-71792197D01*
X103653403Y-71811443D01*
X103641667Y-71833399D01*
X103634440Y-71857224D01*
X103632000Y-71882000D01*
X103632000Y-101854000D01*
X102743000Y-101854000D01*
X102743000Y-71299606D01*
X106224606Y-67818000D01*
X121158000Y-67818000D01*
X121158000Y-68707000D01*
D40*
G36*
X121158000Y-68707000D02*
G01*
X106807000Y-68707000D01*
X106782224Y-68709440D01*
X106758399Y-68716667D01*
X106736443Y-68728403D01*
X106717197Y-68744197D01*
X103669197Y-71792197D01*
X103653403Y-71811443D01*
X103641667Y-71833399D01*
X103634440Y-71857224D01*
X103632000Y-71882000D01*
X103632000Y-101854000D01*
X102743000Y-101854000D01*
X102743000Y-71299606D01*
X106224606Y-67818000D01*
X121158000Y-67818000D01*
X121158000Y-68707000D01*
G37*
D39*
X187198000Y-87127606D02*
X187198000Y-88292394D01*
X186636925Y-88853469D01*
X180998866Y-88903805D01*
X180974112Y-88906466D01*
X180950354Y-88913906D01*
X180928503Y-88925837D01*
X180909993Y-88941202D01*
X179946054Y-89909537D01*
X178911764Y-90908658D01*
X178895639Y-90927627D01*
X178883525Y-90949377D01*
X178875887Y-90973073D01*
X178873000Y-91000000D01*
X178873000Y-93500000D01*
X178875440Y-93524776D01*
X178882667Y-93548601D01*
X178894403Y-93570557D01*
X178910197Y-93589803D01*
X181123000Y-95802606D01*
X181123000Y-97770000D01*
X181125440Y-97794776D01*
X181132667Y-97818601D01*
X181144403Y-97840557D01*
X181160197Y-97859803D01*
X181179443Y-97875597D01*
X181201399Y-97887333D01*
X181225224Y-97894560D01*
X181250467Y-97896999D01*
X186631050Y-97877217D01*
X187198000Y-98551307D01*
X187198000Y-99722394D01*
X186637394Y-100283000D01*
X180975000Y-100283000D01*
X180950224Y-100285440D01*
X180926399Y-100292667D01*
X180904443Y-100304403D01*
X180885197Y-100320197D01*
X178382394Y-102823000D01*
X171502606Y-102823000D01*
X170942000Y-102262394D01*
X170942000Y-101097606D01*
X171502606Y-100537000D01*
X177250000Y-100537000D01*
X177274776Y-100534560D01*
X177298601Y-100527333D01*
X177320557Y-100515597D01*
X177336984Y-100502536D01*
X178836984Y-99092536D01*
X178853365Y-99073788D01*
X178865774Y-99052205D01*
X178873734Y-99028615D01*
X178877000Y-99000000D01*
X178877000Y-96750000D01*
X178874560Y-96725224D01*
X178867333Y-96701399D01*
X178855597Y-96679443D01*
X178839803Y-96660197D01*
X176627000Y-94447394D01*
X176627000Y-91510000D01*
X176624560Y-91485224D01*
X176617333Y-91461399D01*
X176605597Y-91439443D01*
X176589803Y-91420197D01*
X176570557Y-91404403D01*
X176548601Y-91392667D01*
X176524776Y-91385440D01*
X176499749Y-91383000D01*
X171502502Y-91392896D01*
X170942000Y-90832394D01*
X170942000Y-89667606D01*
X171502606Y-89107000D01*
X177165000Y-89107000D01*
X177189776Y-89104560D01*
X177213601Y-89097333D01*
X177235557Y-89085597D01*
X177254803Y-89069803D01*
X179757606Y-86567000D01*
X186637394Y-86567000D01*
X187198000Y-87127606D01*
D40*
G36*
X187198000Y-87127606D02*
G01*
X187198000Y-88292394D01*
X186636925Y-88853469D01*
X180998866Y-88903805D01*
X180974112Y-88906466D01*
X180950354Y-88913906D01*
X180928503Y-88925837D01*
X180909993Y-88941202D01*
X179946054Y-89909537D01*
X178911764Y-90908658D01*
X178895639Y-90927627D01*
X178883525Y-90949377D01*
X178875887Y-90973073D01*
X178873000Y-91000000D01*
X178873000Y-93500000D01*
X178875440Y-93524776D01*
X178882667Y-93548601D01*
X178894403Y-93570557D01*
X178910197Y-93589803D01*
X181123000Y-95802606D01*
X181123000Y-97770000D01*
X181125440Y-97794776D01*
X181132667Y-97818601D01*
X181144403Y-97840557D01*
X181160197Y-97859803D01*
X181179443Y-97875597D01*
X181201399Y-97887333D01*
X181225224Y-97894560D01*
X181250467Y-97896999D01*
X186631050Y-97877217D01*
X187198000Y-98551307D01*
X187198000Y-99722394D01*
X186637394Y-100283000D01*
X180975000Y-100283000D01*
X180950224Y-100285440D01*
X180926399Y-100292667D01*
X180904443Y-100304403D01*
X180885197Y-100320197D01*
X178382394Y-102823000D01*
X171502606Y-102823000D01*
X170942000Y-102262394D01*
X170942000Y-101097606D01*
X171502606Y-100537000D01*
X177250000Y-100537000D01*
X177274776Y-100534560D01*
X177298601Y-100527333D01*
X177320557Y-100515597D01*
X177336984Y-100502536D01*
X178836984Y-99092536D01*
X178853365Y-99073788D01*
X178865774Y-99052205D01*
X178873734Y-99028615D01*
X178877000Y-99000000D01*
X178877000Y-96750000D01*
X178874560Y-96725224D01*
X178867333Y-96701399D01*
X178855597Y-96679443D01*
X178839803Y-96660197D01*
X176627000Y-94447394D01*
X176627000Y-91510000D01*
X176624560Y-91485224D01*
X176617333Y-91461399D01*
X176605597Y-91439443D01*
X176589803Y-91420197D01*
X176570557Y-91404403D01*
X176548601Y-91392667D01*
X176524776Y-91385440D01*
X176499749Y-91383000D01*
X171502502Y-91392896D01*
X170942000Y-90832394D01*
X170942000Y-89667606D01*
X171502606Y-89107000D01*
X177165000Y-89107000D01*
X177189776Y-89104560D01*
X177213601Y-89097333D01*
X177235557Y-89085597D01*
X177254803Y-89069803D01*
X179757606Y-86567000D01*
X186637394Y-86567000D01*
X187198000Y-87127606D01*
G37*
D39*
X187198000Y-113627606D02*
X187198000Y-114792394D01*
X186636925Y-115353469D01*
X180998866Y-115403805D01*
X180974112Y-115406466D01*
X180950354Y-115413906D01*
X180928503Y-115425837D01*
X180909993Y-115441202D01*
X179946054Y-116409537D01*
X178911764Y-117408658D01*
X178895639Y-117427627D01*
X178883525Y-117449377D01*
X178875887Y-117473073D01*
X178873000Y-117500000D01*
X178873000Y-120000000D01*
X178875440Y-120024776D01*
X178882667Y-120048601D01*
X178894403Y-120070557D01*
X178910197Y-120089803D01*
X181123000Y-122302606D01*
X181123000Y-124270000D01*
X181125440Y-124294776D01*
X181132667Y-124318601D01*
X181144403Y-124340557D01*
X181160197Y-124359803D01*
X181179443Y-124375597D01*
X181201399Y-124387333D01*
X181225224Y-124394560D01*
X181250467Y-124396999D01*
X186631050Y-124377217D01*
X187198000Y-125051307D01*
X187198000Y-126222394D01*
X186637394Y-126783000D01*
X180975000Y-126783000D01*
X180950224Y-126785440D01*
X180926399Y-126792667D01*
X180904443Y-126804403D01*
X180885197Y-126820197D01*
X178382394Y-129323000D01*
X171502606Y-129323000D01*
X170942000Y-128762394D01*
X170942000Y-127597606D01*
X171502606Y-127037000D01*
X177250000Y-127037000D01*
X177274776Y-127034560D01*
X177298601Y-127027333D01*
X177320557Y-127015597D01*
X177336984Y-127002536D01*
X178836984Y-125592536D01*
X178853365Y-125573788D01*
X178865774Y-125552205D01*
X178873734Y-125528615D01*
X178877000Y-125500000D01*
X178877000Y-123250000D01*
X178874560Y-123225224D01*
X178867333Y-123201399D01*
X178855597Y-123179443D01*
X178839803Y-123160197D01*
X176627000Y-120947394D01*
X176627000Y-118010000D01*
X176624560Y-117985224D01*
X176617333Y-117961399D01*
X176605597Y-117939443D01*
X176589803Y-117920197D01*
X176570557Y-117904403D01*
X176548601Y-117892667D01*
X176524776Y-117885440D01*
X176499749Y-117883000D01*
X171502502Y-117892896D01*
X170942000Y-117332394D01*
X170942000Y-116167606D01*
X171502606Y-115607000D01*
X177165000Y-115607000D01*
X177189776Y-115604560D01*
X177213601Y-115597333D01*
X177235557Y-115585597D01*
X177254803Y-115569803D01*
X179757606Y-113067000D01*
X186637394Y-113067000D01*
X187198000Y-113627606D01*
D40*
G36*
X187198000Y-113627606D02*
G01*
X187198000Y-114792394D01*
X186636925Y-115353469D01*
X180998866Y-115403805D01*
X180974112Y-115406466D01*
X180950354Y-115413906D01*
X180928503Y-115425837D01*
X180909993Y-115441202D01*
X179946054Y-116409537D01*
X178911764Y-117408658D01*
X178895639Y-117427627D01*
X178883525Y-117449377D01*
X178875887Y-117473073D01*
X178873000Y-117500000D01*
X178873000Y-120000000D01*
X178875440Y-120024776D01*
X178882667Y-120048601D01*
X178894403Y-120070557D01*
X178910197Y-120089803D01*
X181123000Y-122302606D01*
X181123000Y-124270000D01*
X181125440Y-124294776D01*
X181132667Y-124318601D01*
X181144403Y-124340557D01*
X181160197Y-124359803D01*
X181179443Y-124375597D01*
X181201399Y-124387333D01*
X181225224Y-124394560D01*
X181250467Y-124396999D01*
X186631050Y-124377217D01*
X187198000Y-125051307D01*
X187198000Y-126222394D01*
X186637394Y-126783000D01*
X180975000Y-126783000D01*
X180950224Y-126785440D01*
X180926399Y-126792667D01*
X180904443Y-126804403D01*
X180885197Y-126820197D01*
X178382394Y-129323000D01*
X171502606Y-129323000D01*
X170942000Y-128762394D01*
X170942000Y-127597606D01*
X171502606Y-127037000D01*
X177250000Y-127037000D01*
X177274776Y-127034560D01*
X177298601Y-127027333D01*
X177320557Y-127015597D01*
X177336984Y-127002536D01*
X178836984Y-125592536D01*
X178853365Y-125573788D01*
X178865774Y-125552205D01*
X178873734Y-125528615D01*
X178877000Y-125500000D01*
X178877000Y-123250000D01*
X178874560Y-123225224D01*
X178867333Y-123201399D01*
X178855597Y-123179443D01*
X178839803Y-123160197D01*
X176627000Y-120947394D01*
X176627000Y-118010000D01*
X176624560Y-117985224D01*
X176617333Y-117961399D01*
X176605597Y-117939443D01*
X176589803Y-117920197D01*
X176570557Y-117904403D01*
X176548601Y-117892667D01*
X176524776Y-117885440D01*
X176499749Y-117883000D01*
X171502502Y-117892896D01*
X170942000Y-117332394D01*
X170942000Y-116167606D01*
X171502606Y-115607000D01*
X177165000Y-115607000D01*
X177189776Y-115604560D01*
X177213601Y-115597333D01*
X177235557Y-115585597D01*
X177254803Y-115569803D01*
X179757606Y-113067000D01*
X186637394Y-113067000D01*
X187198000Y-113627606D01*
G37*
M02*
