%TF.GenerationSoftware,KiCad,Pcbnew,5.1.9+dfsg1-1+deb11u1*%
%TF.CreationDate,2023-02-15T16:28:34+00:00*%
%TF.ProjectId,bao-board,62616f2d-626f-4617-9264-2e6b69636164,rev?*%
%TF.SameCoordinates,Original*%
%TF.FileFunction,Paste,Top*%
%TF.FilePolarity,Positive*%
%FSLAX46Y46*%
G04 Gerber Fmt 4.6, Leading zero omitted, Abs format (unit mm)*
G04 Created by KiCad (PCBNEW 5.1.9+dfsg1-1+deb11u1) date 2023-02-15 16:28:34*
%MOMM*%
%LPD*%
G01*
G04 APERTURE LIST*
%ADD10R,1.500000X2.000000*%
%ADD11R,3.800000X2.000000*%
G04 APERTURE END LIST*
%TO.C,R14*%
G36*
G01*
X91050000Y-131924999D02*
X91050000Y-133175001D01*
G75*
G02*
X90800001Y-133425000I-249999J0D01*
G01*
X89999999Y-133425000D01*
G75*
G02*
X89750000Y-133175001I0J249999D01*
G01*
X89750000Y-131924999D01*
G75*
G02*
X89999999Y-131675000I249999J0D01*
G01*
X90800001Y-131675000D01*
G75*
G02*
X91050000Y-131924999I0J-249999D01*
G01*
G37*
G36*
G01*
X94150000Y-131924999D02*
X94150000Y-133175001D01*
G75*
G02*
X93900001Y-133425000I-249999J0D01*
G01*
X93099999Y-133425000D01*
G75*
G02*
X92850000Y-133175001I0J249999D01*
G01*
X92850000Y-131924999D01*
G75*
G02*
X93099999Y-131675000I249999J0D01*
G01*
X93900001Y-131675000D01*
G75*
G02*
X94150000Y-131924999I0J-249999D01*
G01*
G37*
%TD*%
%TO.C,R13*%
G36*
G01*
X78878000Y-105273001D02*
X78878000Y-104022999D01*
G75*
G02*
X79127999Y-103773000I249999J0D01*
G01*
X79928001Y-103773000D01*
G75*
G02*
X80178000Y-104022999I0J-249999D01*
G01*
X80178000Y-105273001D01*
G75*
G02*
X79928001Y-105523000I-249999J0D01*
G01*
X79127999Y-105523000D01*
G75*
G02*
X78878000Y-105273001I0J249999D01*
G01*
G37*
G36*
G01*
X75778000Y-105273001D02*
X75778000Y-104022999D01*
G75*
G02*
X76027999Y-103773000I249999J0D01*
G01*
X76828001Y-103773000D01*
G75*
G02*
X77078000Y-104022999I0J-249999D01*
G01*
X77078000Y-105273001D01*
G75*
G02*
X76828001Y-105523000I-249999J0D01*
G01*
X76027999Y-105523000D01*
G75*
G02*
X75778000Y-105273001I0J249999D01*
G01*
G37*
%TD*%
%TO.C,C8*%
G36*
G01*
X105000000Y-138450002D02*
X105000000Y-137149998D01*
G75*
G02*
X105249998Y-136900000I249998J0D01*
G01*
X106075002Y-136900000D01*
G75*
G02*
X106325000Y-137149998I0J-249998D01*
G01*
X106325000Y-138450002D01*
G75*
G02*
X106075002Y-138700000I-249998J0D01*
G01*
X105249998Y-138700000D01*
G75*
G02*
X105000000Y-138450002I0J249998D01*
G01*
G37*
G36*
G01*
X101875000Y-138450002D02*
X101875000Y-137149998D01*
G75*
G02*
X102124998Y-136900000I249998J0D01*
G01*
X102950002Y-136900000D01*
G75*
G02*
X103200000Y-137149998I0J-249998D01*
G01*
X103200000Y-138450002D01*
G75*
G02*
X102950002Y-138700000I-249998J0D01*
G01*
X102124998Y-138700000D01*
G75*
G02*
X101875000Y-138450002I0J249998D01*
G01*
G37*
%TD*%
%TO.C,C7*%
G36*
G01*
X105000000Y-135700002D02*
X105000000Y-134399998D01*
G75*
G02*
X105249998Y-134150000I249998J0D01*
G01*
X106075002Y-134150000D01*
G75*
G02*
X106325000Y-134399998I0J-249998D01*
G01*
X106325000Y-135700002D01*
G75*
G02*
X106075002Y-135950000I-249998J0D01*
G01*
X105249998Y-135950000D01*
G75*
G02*
X105000000Y-135700002I0J249998D01*
G01*
G37*
G36*
G01*
X101875000Y-135700002D02*
X101875000Y-134399998D01*
G75*
G02*
X102124998Y-134150000I249998J0D01*
G01*
X102950002Y-134150000D01*
G75*
G02*
X103200000Y-134399998I0J-249998D01*
G01*
X103200000Y-135700002D01*
G75*
G02*
X102950002Y-135950000I-249998J0D01*
G01*
X102124998Y-135950000D01*
G75*
G02*
X101875000Y-135700002I0J249998D01*
G01*
G37*
%TD*%
%TO.C,U2*%
G36*
G01*
X87635000Y-126745000D02*
X87635000Y-126115000D01*
G75*
G02*
X87885000Y-125865000I250000J0D01*
G01*
X88515000Y-125865000D01*
G75*
G02*
X88765000Y-126115000I0J-250000D01*
G01*
X88765000Y-126745000D01*
G75*
G02*
X88515000Y-126995000I-250000J0D01*
G01*
X87885000Y-126995000D01*
G75*
G02*
X87635000Y-126745000I0J250000D01*
G01*
G37*
G36*
G01*
X87000000Y-122680000D02*
X87000000Y-121905000D01*
G75*
G02*
X87050000Y-121855000I50000J0D01*
G01*
X87150000Y-121855000D01*
G75*
G02*
X87200000Y-121905000I0J-50000D01*
G01*
X87200000Y-122680000D01*
G75*
G02*
X87150000Y-122730000I-50000J0D01*
G01*
X87050000Y-122730000D01*
G75*
G02*
X87000000Y-122680000I0J50000D01*
G01*
G37*
G36*
G01*
X91000000Y-122680000D02*
X91000000Y-121905000D01*
G75*
G02*
X91050000Y-121855000I50000J0D01*
G01*
X91150000Y-121855000D01*
G75*
G02*
X91200000Y-121905000I0J-50000D01*
G01*
X91200000Y-122680000D01*
G75*
G02*
X91150000Y-122730000I-50000J0D01*
G01*
X91050000Y-122730000D01*
G75*
G02*
X91000000Y-122680000I0J50000D01*
G01*
G37*
G36*
G01*
X88600000Y-129555000D02*
X88600000Y-128780000D01*
G75*
G02*
X88650000Y-128730000I50000J0D01*
G01*
X88750000Y-128730000D01*
G75*
G02*
X88800000Y-128780000I0J-50000D01*
G01*
X88800000Y-129555000D01*
G75*
G02*
X88750000Y-129605000I-50000J0D01*
G01*
X88650000Y-129605000D01*
G75*
G02*
X88600000Y-129555000I0J50000D01*
G01*
G37*
G36*
G01*
X85025000Y-126780000D02*
X85025000Y-126680000D01*
G75*
G02*
X85075000Y-126630000I50000J0D01*
G01*
X85850000Y-126630000D01*
G75*
G02*
X85900000Y-126680000I0J-50000D01*
G01*
X85900000Y-126780000D01*
G75*
G02*
X85850000Y-126830000I-50000J0D01*
G01*
X85075000Y-126830000D01*
G75*
G02*
X85025000Y-126780000I0J50000D01*
G01*
G37*
G36*
G01*
X85025000Y-127980000D02*
X85025000Y-127880000D01*
G75*
G02*
X85075000Y-127830000I50000J0D01*
G01*
X85850000Y-127830000D01*
G75*
G02*
X85900000Y-127880000I0J-50000D01*
G01*
X85900000Y-127980000D01*
G75*
G02*
X85850000Y-128030000I-50000J0D01*
G01*
X85075000Y-128030000D01*
G75*
G02*
X85025000Y-127980000I0J50000D01*
G01*
G37*
G36*
G01*
X90200000Y-129555000D02*
X90200000Y-128780000D01*
G75*
G02*
X90250000Y-128730000I50000J0D01*
G01*
X90350000Y-128730000D01*
G75*
G02*
X90400000Y-128780000I0J-50000D01*
G01*
X90400000Y-129555000D01*
G75*
G02*
X90350000Y-129605000I-50000J0D01*
G01*
X90250000Y-129605000D01*
G75*
G02*
X90200000Y-129555000I0J50000D01*
G01*
G37*
G36*
G01*
X85025000Y-128380000D02*
X85025000Y-128280000D01*
G75*
G02*
X85075000Y-128230000I50000J0D01*
G01*
X85850000Y-128230000D01*
G75*
G02*
X85900000Y-128280000I0J-50000D01*
G01*
X85900000Y-128380000D01*
G75*
G02*
X85850000Y-128430000I-50000J0D01*
G01*
X85075000Y-128430000D01*
G75*
G02*
X85025000Y-128380000I0J50000D01*
G01*
G37*
G36*
G01*
X86200000Y-129555000D02*
X86200000Y-128780000D01*
G75*
G02*
X86250000Y-128730000I50000J0D01*
G01*
X86350000Y-128730000D01*
G75*
G02*
X86400000Y-128780000I0J-50000D01*
G01*
X86400000Y-129555000D01*
G75*
G02*
X86350000Y-129605000I-50000J0D01*
G01*
X86250000Y-129605000D01*
G75*
G02*
X86200000Y-129555000I0J50000D01*
G01*
G37*
G36*
G01*
X91900000Y-123980000D02*
X91900000Y-123880000D01*
G75*
G02*
X91950000Y-123830000I50000J0D01*
G01*
X92725000Y-123830000D01*
G75*
G02*
X92775000Y-123880000I0J-50000D01*
G01*
X92775000Y-123980000D01*
G75*
G02*
X92725000Y-124030000I-50000J0D01*
G01*
X91950000Y-124030000D01*
G75*
G02*
X91900000Y-123980000I0J50000D01*
G01*
G37*
G36*
G01*
X89000000Y-122680000D02*
X89000000Y-121905000D01*
G75*
G02*
X89050000Y-121855000I50000J0D01*
G01*
X89150000Y-121855000D01*
G75*
G02*
X89200000Y-121905000I0J-50000D01*
G01*
X89200000Y-122680000D01*
G75*
G02*
X89150000Y-122730000I-50000J0D01*
G01*
X89050000Y-122730000D01*
G75*
G02*
X89000000Y-122680000I0J50000D01*
G01*
G37*
G36*
G01*
X91900000Y-126380000D02*
X91900000Y-126280000D01*
G75*
G02*
X91950000Y-126230000I50000J0D01*
G01*
X92725000Y-126230000D01*
G75*
G02*
X92775000Y-126280000I0J-50000D01*
G01*
X92775000Y-126380000D01*
G75*
G02*
X92725000Y-126430000I-50000J0D01*
G01*
X91950000Y-126430000D01*
G75*
G02*
X91900000Y-126380000I0J50000D01*
G01*
G37*
G36*
G01*
X91900000Y-123180000D02*
X91900000Y-123080000D01*
G75*
G02*
X91950000Y-123030000I50000J0D01*
G01*
X92725000Y-123030000D01*
G75*
G02*
X92775000Y-123080000I0J-50000D01*
G01*
X92775000Y-123180000D01*
G75*
G02*
X92725000Y-123230000I-50000J0D01*
G01*
X91950000Y-123230000D01*
G75*
G02*
X91900000Y-123180000I0J50000D01*
G01*
G37*
G36*
G01*
X87400000Y-122680000D02*
X87400000Y-121905000D01*
G75*
G02*
X87450000Y-121855000I50000J0D01*
G01*
X87550000Y-121855000D01*
G75*
G02*
X87600000Y-121905000I0J-50000D01*
G01*
X87600000Y-122680000D01*
G75*
G02*
X87550000Y-122730000I-50000J0D01*
G01*
X87450000Y-122730000D01*
G75*
G02*
X87400000Y-122680000I0J50000D01*
G01*
G37*
G36*
G01*
X86200000Y-122680000D02*
X86200000Y-121905000D01*
G75*
G02*
X86250000Y-121855000I50000J0D01*
G01*
X86350000Y-121855000D01*
G75*
G02*
X86400000Y-121905000I0J-50000D01*
G01*
X86400000Y-122680000D01*
G75*
G02*
X86350000Y-122730000I-50000J0D01*
G01*
X86250000Y-122730000D01*
G75*
G02*
X86200000Y-122680000I0J50000D01*
G01*
G37*
G36*
G01*
X89035000Y-125345000D02*
X89035000Y-124715000D01*
G75*
G02*
X89285000Y-124465000I250000J0D01*
G01*
X89915000Y-124465000D01*
G75*
G02*
X90165000Y-124715000I0J-250000D01*
G01*
X90165000Y-125345000D01*
G75*
G02*
X89915000Y-125595000I-250000J0D01*
G01*
X89285000Y-125595000D01*
G75*
G02*
X89035000Y-125345000I0J250000D01*
G01*
G37*
G36*
G01*
X87400000Y-129555000D02*
X87400000Y-128780000D01*
G75*
G02*
X87450000Y-128730000I50000J0D01*
G01*
X87550000Y-128730000D01*
G75*
G02*
X87600000Y-128780000I0J-50000D01*
G01*
X87600000Y-129555000D01*
G75*
G02*
X87550000Y-129605000I-50000J0D01*
G01*
X87450000Y-129605000D01*
G75*
G02*
X87400000Y-129555000I0J50000D01*
G01*
G37*
G36*
G01*
X91900000Y-125180000D02*
X91900000Y-125080000D01*
G75*
G02*
X91950000Y-125030000I50000J0D01*
G01*
X92725000Y-125030000D01*
G75*
G02*
X92775000Y-125080000I0J-50000D01*
G01*
X92775000Y-125180000D01*
G75*
G02*
X92725000Y-125230000I-50000J0D01*
G01*
X91950000Y-125230000D01*
G75*
G02*
X91900000Y-125180000I0J50000D01*
G01*
G37*
G36*
G01*
X91900000Y-125980000D02*
X91900000Y-125880000D01*
G75*
G02*
X91950000Y-125830000I50000J0D01*
G01*
X92725000Y-125830000D01*
G75*
G02*
X92775000Y-125880000I0J-50000D01*
G01*
X92775000Y-125980000D01*
G75*
G02*
X92725000Y-126030000I-50000J0D01*
G01*
X91950000Y-126030000D01*
G75*
G02*
X91900000Y-125980000I0J50000D01*
G01*
G37*
G36*
G01*
X90600000Y-122680000D02*
X90600000Y-121905000D01*
G75*
G02*
X90650000Y-121855000I50000J0D01*
G01*
X90750000Y-121855000D01*
G75*
G02*
X90800000Y-121905000I0J-50000D01*
G01*
X90800000Y-122680000D01*
G75*
G02*
X90750000Y-122730000I-50000J0D01*
G01*
X90650000Y-122730000D01*
G75*
G02*
X90600000Y-122680000I0J50000D01*
G01*
G37*
G36*
G01*
X91900000Y-123580000D02*
X91900000Y-123480000D01*
G75*
G02*
X91950000Y-123430000I50000J0D01*
G01*
X92725000Y-123430000D01*
G75*
G02*
X92775000Y-123480000I0J-50000D01*
G01*
X92775000Y-123580000D01*
G75*
G02*
X92725000Y-123630000I-50000J0D01*
G01*
X91950000Y-123630000D01*
G75*
G02*
X91900000Y-123580000I0J50000D01*
G01*
G37*
G36*
G01*
X87800000Y-129555000D02*
X87800000Y-128780000D01*
G75*
G02*
X87850000Y-128730000I50000J0D01*
G01*
X87950000Y-128730000D01*
G75*
G02*
X88000000Y-128780000I0J-50000D01*
G01*
X88000000Y-129555000D01*
G75*
G02*
X87950000Y-129605000I-50000J0D01*
G01*
X87850000Y-129605000D01*
G75*
G02*
X87800000Y-129555000I0J50000D01*
G01*
G37*
G36*
G01*
X85025000Y-125580000D02*
X85025000Y-125480000D01*
G75*
G02*
X85075000Y-125430000I50000J0D01*
G01*
X85850000Y-125430000D01*
G75*
G02*
X85900000Y-125480000I0J-50000D01*
G01*
X85900000Y-125580000D01*
G75*
G02*
X85850000Y-125630000I-50000J0D01*
G01*
X85075000Y-125630000D01*
G75*
G02*
X85025000Y-125580000I0J50000D01*
G01*
G37*
G36*
G01*
X91900000Y-124380000D02*
X91900000Y-124280000D01*
G75*
G02*
X91950000Y-124230000I50000J0D01*
G01*
X92725000Y-124230000D01*
G75*
G02*
X92775000Y-124280000I0J-50000D01*
G01*
X92775000Y-124380000D01*
G75*
G02*
X92725000Y-124430000I-50000J0D01*
G01*
X91950000Y-124430000D01*
G75*
G02*
X91900000Y-124380000I0J50000D01*
G01*
G37*
G36*
G01*
X91400000Y-122680000D02*
X91400000Y-121905000D01*
G75*
G02*
X91450000Y-121855000I50000J0D01*
G01*
X91550000Y-121855000D01*
G75*
G02*
X91600000Y-121905000I0J-50000D01*
G01*
X91600000Y-122680000D01*
G75*
G02*
X91550000Y-122730000I-50000J0D01*
G01*
X91450000Y-122730000D01*
G75*
G02*
X91400000Y-122680000I0J50000D01*
G01*
G37*
G36*
G01*
X85025000Y-124380000D02*
X85025000Y-124280000D01*
G75*
G02*
X85075000Y-124230000I50000J0D01*
G01*
X85850000Y-124230000D01*
G75*
G02*
X85900000Y-124280000I0J-50000D01*
G01*
X85900000Y-124380000D01*
G75*
G02*
X85850000Y-124430000I-50000J0D01*
G01*
X85075000Y-124430000D01*
G75*
G02*
X85025000Y-124380000I0J50000D01*
G01*
G37*
G36*
G01*
X91900000Y-126780000D02*
X91900000Y-126680000D01*
G75*
G02*
X91950000Y-126630000I50000J0D01*
G01*
X92725000Y-126630000D01*
G75*
G02*
X92775000Y-126680000I0J-50000D01*
G01*
X92775000Y-126780000D01*
G75*
G02*
X92725000Y-126830000I-50000J0D01*
G01*
X91950000Y-126830000D01*
G75*
G02*
X91900000Y-126780000I0J50000D01*
G01*
G37*
G36*
G01*
X86600000Y-122680000D02*
X86600000Y-121905000D01*
G75*
G02*
X86650000Y-121855000I50000J0D01*
G01*
X86750000Y-121855000D01*
G75*
G02*
X86800000Y-121905000I0J-50000D01*
G01*
X86800000Y-122680000D01*
G75*
G02*
X86750000Y-122730000I-50000J0D01*
G01*
X86650000Y-122730000D01*
G75*
G02*
X86600000Y-122680000I0J50000D01*
G01*
G37*
G36*
G01*
X85025000Y-125180000D02*
X85025000Y-125080000D01*
G75*
G02*
X85075000Y-125030000I50000J0D01*
G01*
X85850000Y-125030000D01*
G75*
G02*
X85900000Y-125080000I0J-50000D01*
G01*
X85900000Y-125180000D01*
G75*
G02*
X85850000Y-125230000I-50000J0D01*
G01*
X85075000Y-125230000D01*
G75*
G02*
X85025000Y-125180000I0J50000D01*
G01*
G37*
G36*
G01*
X88200000Y-122680000D02*
X88200000Y-121905000D01*
G75*
G02*
X88250000Y-121855000I50000J0D01*
G01*
X88350000Y-121855000D01*
G75*
G02*
X88400000Y-121905000I0J-50000D01*
G01*
X88400000Y-122680000D01*
G75*
G02*
X88350000Y-122730000I-50000J0D01*
G01*
X88250000Y-122730000D01*
G75*
G02*
X88200000Y-122680000I0J50000D01*
G01*
G37*
G36*
G01*
X85025000Y-124780000D02*
X85025000Y-124680000D01*
G75*
G02*
X85075000Y-124630000I50000J0D01*
G01*
X85850000Y-124630000D01*
G75*
G02*
X85900000Y-124680000I0J-50000D01*
G01*
X85900000Y-124780000D01*
G75*
G02*
X85850000Y-124830000I-50000J0D01*
G01*
X85075000Y-124830000D01*
G75*
G02*
X85025000Y-124780000I0J50000D01*
G01*
G37*
G36*
G01*
X85025000Y-123180000D02*
X85025000Y-123080000D01*
G75*
G02*
X85075000Y-123030000I50000J0D01*
G01*
X85850000Y-123030000D01*
G75*
G02*
X85900000Y-123080000I0J-50000D01*
G01*
X85900000Y-123180000D01*
G75*
G02*
X85850000Y-123230000I-50000J0D01*
G01*
X85075000Y-123230000D01*
G75*
G02*
X85025000Y-123180000I0J50000D01*
G01*
G37*
G36*
G01*
X87800000Y-122680000D02*
X87800000Y-121905000D01*
G75*
G02*
X87850000Y-121855000I50000J0D01*
G01*
X87950000Y-121855000D01*
G75*
G02*
X88000000Y-121905000I0J-50000D01*
G01*
X88000000Y-122680000D01*
G75*
G02*
X87950000Y-122730000I-50000J0D01*
G01*
X87850000Y-122730000D01*
G75*
G02*
X87800000Y-122680000I0J50000D01*
G01*
G37*
G36*
G01*
X91900000Y-125580000D02*
X91900000Y-125480000D01*
G75*
G02*
X91950000Y-125430000I50000J0D01*
G01*
X92725000Y-125430000D01*
G75*
G02*
X92775000Y-125480000I0J-50000D01*
G01*
X92775000Y-125580000D01*
G75*
G02*
X92725000Y-125630000I-50000J0D01*
G01*
X91950000Y-125630000D01*
G75*
G02*
X91900000Y-125580000I0J50000D01*
G01*
G37*
G36*
G01*
X90200000Y-122680000D02*
X90200000Y-121905000D01*
G75*
G02*
X90250000Y-121855000I50000J0D01*
G01*
X90350000Y-121855000D01*
G75*
G02*
X90400000Y-121905000I0J-50000D01*
G01*
X90400000Y-122680000D01*
G75*
G02*
X90350000Y-122730000I-50000J0D01*
G01*
X90250000Y-122730000D01*
G75*
G02*
X90200000Y-122680000I0J50000D01*
G01*
G37*
G36*
G01*
X87000000Y-129555000D02*
X87000000Y-128780000D01*
G75*
G02*
X87050000Y-128730000I50000J0D01*
G01*
X87150000Y-128730000D01*
G75*
G02*
X87200000Y-128780000I0J-50000D01*
G01*
X87200000Y-129555000D01*
G75*
G02*
X87150000Y-129605000I-50000J0D01*
G01*
X87050000Y-129605000D01*
G75*
G02*
X87000000Y-129555000I0J50000D01*
G01*
G37*
G36*
G01*
X85025000Y-127180000D02*
X85025000Y-127080000D01*
G75*
G02*
X85075000Y-127030000I50000J0D01*
G01*
X85850000Y-127030000D01*
G75*
G02*
X85900000Y-127080000I0J-50000D01*
G01*
X85900000Y-127180000D01*
G75*
G02*
X85850000Y-127230000I-50000J0D01*
G01*
X85075000Y-127230000D01*
G75*
G02*
X85025000Y-127180000I0J50000D01*
G01*
G37*
G36*
G01*
X91900000Y-124780000D02*
X91900000Y-124680000D01*
G75*
G02*
X91950000Y-124630000I50000J0D01*
G01*
X92725000Y-124630000D01*
G75*
G02*
X92775000Y-124680000I0J-50000D01*
G01*
X92775000Y-124780000D01*
G75*
G02*
X92725000Y-124830000I-50000J0D01*
G01*
X91950000Y-124830000D01*
G75*
G02*
X91900000Y-124780000I0J50000D01*
G01*
G37*
G36*
G01*
X85025000Y-123980000D02*
X85025000Y-123880000D01*
G75*
G02*
X85075000Y-123830000I50000J0D01*
G01*
X85850000Y-123830000D01*
G75*
G02*
X85900000Y-123880000I0J-50000D01*
G01*
X85900000Y-123980000D01*
G75*
G02*
X85850000Y-124030000I-50000J0D01*
G01*
X85075000Y-124030000D01*
G75*
G02*
X85025000Y-123980000I0J50000D01*
G01*
G37*
G36*
G01*
X89035000Y-126745000D02*
X89035000Y-126115000D01*
G75*
G02*
X89285000Y-125865000I250000J0D01*
G01*
X89915000Y-125865000D01*
G75*
G02*
X90165000Y-126115000I0J-250000D01*
G01*
X90165000Y-126745000D01*
G75*
G02*
X89915000Y-126995000I-250000J0D01*
G01*
X89285000Y-126995000D01*
G75*
G02*
X89035000Y-126745000I0J250000D01*
G01*
G37*
G36*
G01*
X91900000Y-127980000D02*
X91900000Y-127880000D01*
G75*
G02*
X91950000Y-127830000I50000J0D01*
G01*
X92725000Y-127830000D01*
G75*
G02*
X92775000Y-127880000I0J-50000D01*
G01*
X92775000Y-127980000D01*
G75*
G02*
X92725000Y-128030000I-50000J0D01*
G01*
X91950000Y-128030000D01*
G75*
G02*
X91900000Y-127980000I0J50000D01*
G01*
G37*
G36*
G01*
X85025000Y-123580000D02*
X85025000Y-123480000D01*
G75*
G02*
X85075000Y-123430000I50000J0D01*
G01*
X85850000Y-123430000D01*
G75*
G02*
X85900000Y-123480000I0J-50000D01*
G01*
X85900000Y-123580000D01*
G75*
G02*
X85850000Y-123630000I-50000J0D01*
G01*
X85075000Y-123630000D01*
G75*
G02*
X85025000Y-123580000I0J50000D01*
G01*
G37*
G36*
G01*
X86600000Y-129555000D02*
X86600000Y-128780000D01*
G75*
G02*
X86650000Y-128730000I50000J0D01*
G01*
X86750000Y-128730000D01*
G75*
G02*
X86800000Y-128780000I0J-50000D01*
G01*
X86800000Y-129555000D01*
G75*
G02*
X86750000Y-129605000I-50000J0D01*
G01*
X86650000Y-129605000D01*
G75*
G02*
X86600000Y-129555000I0J50000D01*
G01*
G37*
G36*
G01*
X90600000Y-129555000D02*
X90600000Y-128780000D01*
G75*
G02*
X90650000Y-128730000I50000J0D01*
G01*
X90750000Y-128730000D01*
G75*
G02*
X90800000Y-128780000I0J-50000D01*
G01*
X90800000Y-129555000D01*
G75*
G02*
X90750000Y-129605000I-50000J0D01*
G01*
X90650000Y-129605000D01*
G75*
G02*
X90600000Y-129555000I0J50000D01*
G01*
G37*
G36*
G01*
X89800000Y-129555000D02*
X89800000Y-128780000D01*
G75*
G02*
X89850000Y-128730000I50000J0D01*
G01*
X89950000Y-128730000D01*
G75*
G02*
X90000000Y-128780000I0J-50000D01*
G01*
X90000000Y-129555000D01*
G75*
G02*
X89950000Y-129605000I-50000J0D01*
G01*
X89850000Y-129605000D01*
G75*
G02*
X89800000Y-129555000I0J50000D01*
G01*
G37*
G36*
G01*
X89400000Y-129555000D02*
X89400000Y-128780000D01*
G75*
G02*
X89450000Y-128730000I50000J0D01*
G01*
X89550000Y-128730000D01*
G75*
G02*
X89600000Y-128780000I0J-50000D01*
G01*
X89600000Y-129555000D01*
G75*
G02*
X89550000Y-129605000I-50000J0D01*
G01*
X89450000Y-129605000D01*
G75*
G02*
X89400000Y-129555000I0J50000D01*
G01*
G37*
G36*
G01*
X85025000Y-125980000D02*
X85025000Y-125880000D01*
G75*
G02*
X85075000Y-125830000I50000J0D01*
G01*
X85850000Y-125830000D01*
G75*
G02*
X85900000Y-125880000I0J-50000D01*
G01*
X85900000Y-125980000D01*
G75*
G02*
X85850000Y-126030000I-50000J0D01*
G01*
X85075000Y-126030000D01*
G75*
G02*
X85025000Y-125980000I0J50000D01*
G01*
G37*
G36*
G01*
X88600000Y-122680000D02*
X88600000Y-121905000D01*
G75*
G02*
X88650000Y-121855000I50000J0D01*
G01*
X88750000Y-121855000D01*
G75*
G02*
X88800000Y-121905000I0J-50000D01*
G01*
X88800000Y-122680000D01*
G75*
G02*
X88750000Y-122730000I-50000J0D01*
G01*
X88650000Y-122730000D01*
G75*
G02*
X88600000Y-122680000I0J50000D01*
G01*
G37*
G36*
G01*
X85025000Y-127580000D02*
X85025000Y-127480000D01*
G75*
G02*
X85075000Y-127430000I50000J0D01*
G01*
X85850000Y-127430000D01*
G75*
G02*
X85900000Y-127480000I0J-50000D01*
G01*
X85900000Y-127580000D01*
G75*
G02*
X85850000Y-127630000I-50000J0D01*
G01*
X85075000Y-127630000D01*
G75*
G02*
X85025000Y-127580000I0J50000D01*
G01*
G37*
G36*
G01*
X88200000Y-129555000D02*
X88200000Y-128780000D01*
G75*
G02*
X88250000Y-128730000I50000J0D01*
G01*
X88350000Y-128730000D01*
G75*
G02*
X88400000Y-128780000I0J-50000D01*
G01*
X88400000Y-129555000D01*
G75*
G02*
X88350000Y-129605000I-50000J0D01*
G01*
X88250000Y-129605000D01*
G75*
G02*
X88200000Y-129555000I0J50000D01*
G01*
G37*
G36*
G01*
X85025000Y-126380000D02*
X85025000Y-126280000D01*
G75*
G02*
X85075000Y-126230000I50000J0D01*
G01*
X85850000Y-126230000D01*
G75*
G02*
X85900000Y-126280000I0J-50000D01*
G01*
X85900000Y-126380000D01*
G75*
G02*
X85850000Y-126430000I-50000J0D01*
G01*
X85075000Y-126430000D01*
G75*
G02*
X85025000Y-126380000I0J50000D01*
G01*
G37*
G36*
G01*
X91900000Y-127180000D02*
X91900000Y-127080000D01*
G75*
G02*
X91950000Y-127030000I50000J0D01*
G01*
X92725000Y-127030000D01*
G75*
G02*
X92775000Y-127080000I0J-50000D01*
G01*
X92775000Y-127180000D01*
G75*
G02*
X92725000Y-127230000I-50000J0D01*
G01*
X91950000Y-127230000D01*
G75*
G02*
X91900000Y-127180000I0J50000D01*
G01*
G37*
G36*
G01*
X91900000Y-127580000D02*
X91900000Y-127480000D01*
G75*
G02*
X91950000Y-127430000I50000J0D01*
G01*
X92725000Y-127430000D01*
G75*
G02*
X92775000Y-127480000I0J-50000D01*
G01*
X92775000Y-127580000D01*
G75*
G02*
X92725000Y-127630000I-50000J0D01*
G01*
X91950000Y-127630000D01*
G75*
G02*
X91900000Y-127580000I0J50000D01*
G01*
G37*
G36*
G01*
X87635000Y-125345000D02*
X87635000Y-124715000D01*
G75*
G02*
X87885000Y-124465000I250000J0D01*
G01*
X88515000Y-124465000D01*
G75*
G02*
X88765000Y-124715000I0J-250000D01*
G01*
X88765000Y-125345000D01*
G75*
G02*
X88515000Y-125595000I-250000J0D01*
G01*
X87885000Y-125595000D01*
G75*
G02*
X87635000Y-125345000I0J250000D01*
G01*
G37*
G36*
G01*
X89400000Y-122680000D02*
X89400000Y-121905000D01*
G75*
G02*
X89450000Y-121855000I50000J0D01*
G01*
X89550000Y-121855000D01*
G75*
G02*
X89600000Y-121905000I0J-50000D01*
G01*
X89600000Y-122680000D01*
G75*
G02*
X89550000Y-122730000I-50000J0D01*
G01*
X89450000Y-122730000D01*
G75*
G02*
X89400000Y-122680000I0J50000D01*
G01*
G37*
G36*
G01*
X89000000Y-129555000D02*
X89000000Y-128780000D01*
G75*
G02*
X89050000Y-128730000I50000J0D01*
G01*
X89150000Y-128730000D01*
G75*
G02*
X89200000Y-128780000I0J-50000D01*
G01*
X89200000Y-129555000D01*
G75*
G02*
X89150000Y-129605000I-50000J0D01*
G01*
X89050000Y-129605000D01*
G75*
G02*
X89000000Y-129555000I0J50000D01*
G01*
G37*
G36*
G01*
X91000000Y-129555000D02*
X91000000Y-128780000D01*
G75*
G02*
X91050000Y-128730000I50000J0D01*
G01*
X91150000Y-128730000D01*
G75*
G02*
X91200000Y-128780000I0J-50000D01*
G01*
X91200000Y-129555000D01*
G75*
G02*
X91150000Y-129605000I-50000J0D01*
G01*
X91050000Y-129605000D01*
G75*
G02*
X91000000Y-129555000I0J50000D01*
G01*
G37*
G36*
G01*
X91400000Y-129555000D02*
X91400000Y-128780000D01*
G75*
G02*
X91450000Y-128730000I50000J0D01*
G01*
X91550000Y-128730000D01*
G75*
G02*
X91600000Y-128780000I0J-50000D01*
G01*
X91600000Y-129555000D01*
G75*
G02*
X91550000Y-129605000I-50000J0D01*
G01*
X91450000Y-129605000D01*
G75*
G02*
X91400000Y-129555000I0J50000D01*
G01*
G37*
G36*
G01*
X91900000Y-128380000D02*
X91900000Y-128280000D01*
G75*
G02*
X91950000Y-128230000I50000J0D01*
G01*
X92725000Y-128230000D01*
G75*
G02*
X92775000Y-128280000I0J-50000D01*
G01*
X92775000Y-128380000D01*
G75*
G02*
X92725000Y-128430000I-50000J0D01*
G01*
X91950000Y-128430000D01*
G75*
G02*
X91900000Y-128380000I0J50000D01*
G01*
G37*
G36*
G01*
X89800000Y-122680000D02*
X89800000Y-121905000D01*
G75*
G02*
X89850000Y-121855000I50000J0D01*
G01*
X89950000Y-121855000D01*
G75*
G02*
X90000000Y-121905000I0J-50000D01*
G01*
X90000000Y-122680000D01*
G75*
G02*
X89950000Y-122730000I-50000J0D01*
G01*
X89850000Y-122730000D01*
G75*
G02*
X89800000Y-122680000I0J50000D01*
G01*
G37*
%TD*%
%TO.C,R12*%
G36*
G01*
X114075001Y-116900000D02*
X112824999Y-116900000D01*
G75*
G02*
X112575000Y-116650001I0J249999D01*
G01*
X112575000Y-115849999D01*
G75*
G02*
X112824999Y-115600000I249999J0D01*
G01*
X114075001Y-115600000D01*
G75*
G02*
X114325000Y-115849999I0J-249999D01*
G01*
X114325000Y-116650001D01*
G75*
G02*
X114075001Y-116900000I-249999J0D01*
G01*
G37*
G36*
G01*
X114075001Y-120000000D02*
X112824999Y-120000000D01*
G75*
G02*
X112575000Y-119750001I0J249999D01*
G01*
X112575000Y-118949999D01*
G75*
G02*
X112824999Y-118700000I249999J0D01*
G01*
X114075001Y-118700000D01*
G75*
G02*
X114325000Y-118949999I0J-249999D01*
G01*
X114325000Y-119750001D01*
G75*
G02*
X114075001Y-120000000I-249999J0D01*
G01*
G37*
%TD*%
%TO.C,R11*%
G36*
G01*
X112800000Y-122525001D02*
X112800000Y-121274999D01*
G75*
G02*
X113049999Y-121025000I249999J0D01*
G01*
X113850001Y-121025000D01*
G75*
G02*
X114100000Y-121274999I0J-249999D01*
G01*
X114100000Y-122525001D01*
G75*
G02*
X113850001Y-122775000I-249999J0D01*
G01*
X113049999Y-122775000D01*
G75*
G02*
X112800000Y-122525001I0J249999D01*
G01*
G37*
G36*
G01*
X109700000Y-122525001D02*
X109700000Y-121274999D01*
G75*
G02*
X109949999Y-121025000I249999J0D01*
G01*
X110750001Y-121025000D01*
G75*
G02*
X111000000Y-121274999I0J-249999D01*
G01*
X111000000Y-122525001D01*
G75*
G02*
X110750001Y-122775000I-249999J0D01*
G01*
X109949999Y-122775000D01*
G75*
G02*
X109700000Y-122525001I0J249999D01*
G01*
G37*
%TD*%
%TO.C,D6*%
G36*
G01*
X108057000Y-118837000D02*
X108057000Y-120087000D01*
G75*
G02*
X107807000Y-120337000I-250000J0D01*
G01*
X106882000Y-120337000D01*
G75*
G02*
X106632000Y-120087000I0J250000D01*
G01*
X106632000Y-118837000D01*
G75*
G02*
X106882000Y-118587000I250000J0D01*
G01*
X107807000Y-118587000D01*
G75*
G02*
X108057000Y-118837000I0J-250000D01*
G01*
G37*
G36*
G01*
X111032000Y-118837000D02*
X111032000Y-120087000D01*
G75*
G02*
X110782000Y-120337000I-250000J0D01*
G01*
X109857000Y-120337000D01*
G75*
G02*
X109607000Y-120087000I0J250000D01*
G01*
X109607000Y-118837000D01*
G75*
G02*
X109857000Y-118587000I250000J0D01*
G01*
X110782000Y-118587000D01*
G75*
G02*
X111032000Y-118837000I0J-250000D01*
G01*
G37*
%TD*%
%TO.C,D5*%
G36*
G01*
X108057000Y-115637000D02*
X108057000Y-116887000D01*
G75*
G02*
X107807000Y-117137000I-250000J0D01*
G01*
X106882000Y-117137000D01*
G75*
G02*
X106632000Y-116887000I0J250000D01*
G01*
X106632000Y-115637000D01*
G75*
G02*
X106882000Y-115387000I250000J0D01*
G01*
X107807000Y-115387000D01*
G75*
G02*
X108057000Y-115637000I0J-250000D01*
G01*
G37*
G36*
G01*
X111032000Y-115637000D02*
X111032000Y-116887000D01*
G75*
G02*
X110782000Y-117137000I-250000J0D01*
G01*
X109857000Y-117137000D01*
G75*
G02*
X109607000Y-116887000I0J250000D01*
G01*
X109607000Y-115637000D01*
G75*
G02*
X109857000Y-115387000I250000J0D01*
G01*
X110782000Y-115387000D01*
G75*
G02*
X111032000Y-115637000I0J-250000D01*
G01*
G37*
%TD*%
%TO.C,R10*%
G36*
G01*
X99577999Y-120343500D02*
X100828001Y-120343500D01*
G75*
G02*
X101078000Y-120593499I0J-249999D01*
G01*
X101078000Y-121393501D01*
G75*
G02*
X100828001Y-121643500I-249999J0D01*
G01*
X99577999Y-121643500D01*
G75*
G02*
X99328000Y-121393501I0J249999D01*
G01*
X99328000Y-120593499D01*
G75*
G02*
X99577999Y-120343500I249999J0D01*
G01*
G37*
G36*
G01*
X99577999Y-117243500D02*
X100828001Y-117243500D01*
G75*
G02*
X101078000Y-117493499I0J-249999D01*
G01*
X101078000Y-118293501D01*
G75*
G02*
X100828001Y-118543500I-249999J0D01*
G01*
X99577999Y-118543500D01*
G75*
G02*
X99328000Y-118293501I0J249999D01*
G01*
X99328000Y-117493499D01*
G75*
G02*
X99577999Y-117243500I249999J0D01*
G01*
G37*
%TD*%
%TO.C,R9*%
G36*
G01*
X98698480Y-125485999D02*
X98698480Y-126736001D01*
G75*
G02*
X98448481Y-126986000I-249999J0D01*
G01*
X97648479Y-126986000D01*
G75*
G02*
X97398480Y-126736001I0J249999D01*
G01*
X97398480Y-125485999D01*
G75*
G02*
X97648479Y-125236000I249999J0D01*
G01*
X98448481Y-125236000D01*
G75*
G02*
X98698480Y-125485999I0J-249999D01*
G01*
G37*
G36*
G01*
X101798480Y-125485999D02*
X101798480Y-126736001D01*
G75*
G02*
X101548481Y-126986000I-249999J0D01*
G01*
X100748479Y-126986000D01*
G75*
G02*
X100498480Y-126736001I0J249999D01*
G01*
X100498480Y-125485999D01*
G75*
G02*
X100748479Y-125236000I249999J0D01*
G01*
X101548481Y-125236000D01*
G75*
G02*
X101798480Y-125485999I0J-249999D01*
G01*
G37*
%TD*%
%TO.C,R8*%
G36*
G01*
X102900641Y-118551120D02*
X101650639Y-118551120D01*
G75*
G02*
X101400640Y-118301121I0J249999D01*
G01*
X101400640Y-117501119D01*
G75*
G02*
X101650639Y-117251120I249999J0D01*
G01*
X102900641Y-117251120D01*
G75*
G02*
X103150640Y-117501119I0J-249999D01*
G01*
X103150640Y-118301121D01*
G75*
G02*
X102900641Y-118551120I-249999J0D01*
G01*
G37*
G36*
G01*
X102900641Y-121651120D02*
X101650639Y-121651120D01*
G75*
G02*
X101400640Y-121401121I0J249999D01*
G01*
X101400640Y-120601119D01*
G75*
G02*
X101650639Y-120351120I249999J0D01*
G01*
X102900641Y-120351120D01*
G75*
G02*
X103150640Y-120601119I0J-249999D01*
G01*
X103150640Y-121401121D01*
G75*
G02*
X102900641Y-121651120I-249999J0D01*
G01*
G37*
%TD*%
%TO.C,R7*%
G36*
G01*
X100494000Y-124569381D02*
X100494000Y-123319379D01*
G75*
G02*
X100743999Y-123069380I249999J0D01*
G01*
X101544001Y-123069380D01*
G75*
G02*
X101794000Y-123319379I0J-249999D01*
G01*
X101794000Y-124569381D01*
G75*
G02*
X101544001Y-124819380I-249999J0D01*
G01*
X100743999Y-124819380D01*
G75*
G02*
X100494000Y-124569381I0J249999D01*
G01*
G37*
G36*
G01*
X97394000Y-124569381D02*
X97394000Y-123319379D01*
G75*
G02*
X97643999Y-123069380I249999J0D01*
G01*
X98444001Y-123069380D01*
G75*
G02*
X98694000Y-123319379I0J-249999D01*
G01*
X98694000Y-124569381D01*
G75*
G02*
X98444001Y-124819380I-249999J0D01*
G01*
X97643999Y-124819380D01*
G75*
G02*
X97394000Y-124569381I0J249999D01*
G01*
G37*
%TD*%
D10*
%TO.C,U3*%
X71360000Y-100305000D03*
X75960000Y-100305000D03*
X73660000Y-100305000D03*
D11*
X73660000Y-94005000D03*
%TD*%
%TO.C,U5*%
G36*
G01*
X89050000Y-113433500D02*
X89050000Y-113133500D01*
G75*
G02*
X89200000Y-112983500I150000J0D01*
G01*
X90850000Y-112983500D01*
G75*
G02*
X91000000Y-113133500I0J-150000D01*
G01*
X91000000Y-113433500D01*
G75*
G02*
X90850000Y-113583500I-150000J0D01*
G01*
X89200000Y-113583500D01*
G75*
G02*
X89050000Y-113433500I0J150000D01*
G01*
G37*
G36*
G01*
X89050000Y-114703500D02*
X89050000Y-114403500D01*
G75*
G02*
X89200000Y-114253500I150000J0D01*
G01*
X90850000Y-114253500D01*
G75*
G02*
X91000000Y-114403500I0J-150000D01*
G01*
X91000000Y-114703500D01*
G75*
G02*
X90850000Y-114853500I-150000J0D01*
G01*
X89200000Y-114853500D01*
G75*
G02*
X89050000Y-114703500I0J150000D01*
G01*
G37*
G36*
G01*
X89050000Y-115973500D02*
X89050000Y-115673500D01*
G75*
G02*
X89200000Y-115523500I150000J0D01*
G01*
X90850000Y-115523500D01*
G75*
G02*
X91000000Y-115673500I0J-150000D01*
G01*
X91000000Y-115973500D01*
G75*
G02*
X90850000Y-116123500I-150000J0D01*
G01*
X89200000Y-116123500D01*
G75*
G02*
X89050000Y-115973500I0J150000D01*
G01*
G37*
G36*
G01*
X89050000Y-117243500D02*
X89050000Y-116943500D01*
G75*
G02*
X89200000Y-116793500I150000J0D01*
G01*
X90850000Y-116793500D01*
G75*
G02*
X91000000Y-116943500I0J-150000D01*
G01*
X91000000Y-117243500D01*
G75*
G02*
X90850000Y-117393500I-150000J0D01*
G01*
X89200000Y-117393500D01*
G75*
G02*
X89050000Y-117243500I0J150000D01*
G01*
G37*
G36*
G01*
X94000000Y-117243500D02*
X94000000Y-116943500D01*
G75*
G02*
X94150000Y-116793500I150000J0D01*
G01*
X95800000Y-116793500D01*
G75*
G02*
X95950000Y-116943500I0J-150000D01*
G01*
X95950000Y-117243500D01*
G75*
G02*
X95800000Y-117393500I-150000J0D01*
G01*
X94150000Y-117393500D01*
G75*
G02*
X94000000Y-117243500I0J150000D01*
G01*
G37*
G36*
G01*
X94000000Y-115973500D02*
X94000000Y-115673500D01*
G75*
G02*
X94150000Y-115523500I150000J0D01*
G01*
X95800000Y-115523500D01*
G75*
G02*
X95950000Y-115673500I0J-150000D01*
G01*
X95950000Y-115973500D01*
G75*
G02*
X95800000Y-116123500I-150000J0D01*
G01*
X94150000Y-116123500D01*
G75*
G02*
X94000000Y-115973500I0J150000D01*
G01*
G37*
G36*
G01*
X94000000Y-114703500D02*
X94000000Y-114403500D01*
G75*
G02*
X94150000Y-114253500I150000J0D01*
G01*
X95800000Y-114253500D01*
G75*
G02*
X95950000Y-114403500I0J-150000D01*
G01*
X95950000Y-114703500D01*
G75*
G02*
X95800000Y-114853500I-150000J0D01*
G01*
X94150000Y-114853500D01*
G75*
G02*
X94000000Y-114703500I0J150000D01*
G01*
G37*
G36*
G01*
X94000000Y-113433500D02*
X94000000Y-113133500D01*
G75*
G02*
X94150000Y-112983500I150000J0D01*
G01*
X95800000Y-112983500D01*
G75*
G02*
X95950000Y-113133500I0J-150000D01*
G01*
X95950000Y-113433500D01*
G75*
G02*
X95800000Y-113583500I-150000J0D01*
G01*
X94150000Y-113583500D01*
G75*
G02*
X94000000Y-113433500I0J150000D01*
G01*
G37*
%TD*%
M02*
