M48
; DRILL file {KiCad 5.1.9+dfsg1-1+deb11u1} date Wed Feb 15 16:28:32 2023
; FORMAT={-:-/ absolute / inch / decimal}
; #@! TF.CreationDate,2023-02-15T16:28:32+00:00
; #@! TF.GenerationSoftware,Kicad,Pcbnew,5.1.9+dfsg1-1+deb11u1
; #@! TF.FileFunction,Plated,1,2,PTH
FMAT,2
INCH
T1C0.0157
T2C0.0197
T3C0.0315
T4C0.0362
T5C0.0394
T6C0.0433
T7C0.0472
T8C0.0630
T9C0.0866
T10C0.0917
T11C0.1181
T12C0.1260
%
G90
G05
T1
X2.81Y-4.056
X2.9Y-3.701
X2.9Y-3.915
X2.9821Y-3.825
X3.0098Y-5.248
X3.09Y-3.73
X3.09Y-4.02
X3.1142Y-5.1949
X3.2323Y-5.3701
X3.2362Y-5.315
X3.26Y-4.18
X3.3583Y-4.7598
X3.4124Y-5.0404
X3.46Y-4.91
X3.46Y-4.99
X3.4764Y-5.2559
X3.48Y-4.25
X3.4902Y-2.685
X3.5Y-3.625
X3.5079Y-5.0433
X3.515Y-3.525
X3.5236Y-5.1329
X3.53Y-3.425
X3.54Y-4.91
X3.54Y-4.99
X3.545Y-3.325
X3.5512Y-4.6929
X3.5575Y-3.225
X3.575Y-3.125
X3.585Y-4.185
X3.585Y-4.35
X3.59Y-3.025
X3.624Y-4.5768
X3.6378Y-4.7717
X3.6614Y-4.5079
X3.6614Y-4.685
X3.6988Y-4.7756
X3.752Y-4.9173
X3.752Y-4.9567
X3.765Y-4.35
X3.8091Y-4.4587
X3.8268Y-4.8228
X3.83Y-4.125
X3.8681Y-2.1319
X3.8681Y-2.3602
X3.9461Y-4.7014
X3.9625Y-4.35
X3.9975Y-4.125
X4.0039Y-5.1496
X4.0325Y-4.5775
X4.0413Y-5.1063
X4.0625Y-2.83
X4.0625Y-3.0075
X4.0625Y-3.1825
X4.0625Y-3.36
X4.0625Y-3.5425
X4.0625Y-3.7225
X4.0625Y-3.8925
X4.0625Y-4.04
X4.0846Y-5.1201
X4.1161Y-5.1535
X4.1325Y-4.66
X4.1339Y-4.878
X4.145Y-4.35
X4.1496Y-5.185
X4.1875Y-2.6875
X4.325Y-4.35
X4.3425Y-5.252
X4.35Y-2.6875
X4.372Y-5.3406
X4.4173Y-5.2795
X4.4173Y-5.3268
X4.42Y-4.445
X4.4705Y-5.2795
X4.53Y-2.6875
X4.5551Y-5.2756
X4.56Y-4.445
X4.5825Y-4.84
X4.6102Y-3.1693
X4.62Y-2.095
X4.6417Y-5.2933
X4.6475Y-4.5325
X4.6496Y-5.3386
X4.6975Y-2.6875
X4.7425Y-4.6275
X4.811Y-5.3976
X4.8125Y-2.6875
X4.83Y-4.715
X4.89Y-3.91
X4.905Y-2.81
X4.91Y-4.795
X4.945Y-3.425
X4.945Y-3.8
X4.9606Y-5.0709
X4.9646Y-3.2441
X4.9925Y-4.8775
X5.02Y-4.2
X5.07Y-4.955
X5.185Y-3.155
X5.2Y-4.955
X5.32Y-4.955
X5.36Y-4.995
X5.36Y-5.125
X5.36Y-5.265
X5.36Y-5.395
X5.36Y-5.545
X5.375Y-2.885
X5.39Y-4.58
X5.475Y-5.3985
X5.4941Y-5.3526
X5.4941Y-5.4444
X5.54Y-5.3335
X5.54Y-5.4635
X5.545Y-4.735
X5.5859Y-5.3526
X5.5859Y-5.4444
X5.605Y-5.3985
X5.7106Y-5.3985
X5.7297Y-5.3526
X5.7297Y-5.4444
X5.7756Y-5.3335
X5.7756Y-5.4635
X5.8215Y-5.3526
X5.8215Y-5.4444
X5.8406Y-5.3985
T2
X2.8305Y-2.3
X2.8305Y-5.05
X2.8582Y-2.2332
X2.8582Y-2.3668
X2.8582Y-4.9832
X2.8582Y-5.1168
X2.925Y-2.2055
X2.925Y-2.3945
X2.925Y-4.9555
X2.925Y-5.1445
X2.9918Y-2.2332
X2.9918Y-2.3668
X2.9918Y-4.9832
X2.9918Y-5.1168
X3.0195Y-2.3
X3.0195Y-5.05
X5.5805Y-2.3
X5.5805Y-5.05
X5.6082Y-2.2332
X5.6082Y-2.3668
X5.6082Y-4.9832
X5.6082Y-5.1168
X5.675Y-2.2055
X5.675Y-2.3945
X5.675Y-4.9555
X5.675Y-5.1445
X5.7418Y-2.2332
X5.7418Y-2.3668
X5.7418Y-4.9832
X5.7418Y-5.1168
X5.7695Y-2.3
X5.7695Y-5.05
X6.7988Y-5.4
X6.8247Y-5.3374
X6.8247Y-5.4626
X6.8874Y-5.3114
X6.8874Y-5.4886
X6.95Y-5.3374
X6.95Y-5.4626
X6.9759Y-5.4
X7.1241Y-5.4
X7.15Y-5.3374
X7.15Y-5.4626
X7.2126Y-5.3114
X7.2126Y-5.4886
X7.2753Y-5.3374
X7.2753Y-5.4626
X7.3012Y-5.4
X8.3305Y-2.3
X8.3305Y-5.05
X8.3364Y-3.3
X8.3364Y-3.675
X8.3364Y-4.05
X8.3582Y-2.2332
X8.3582Y-2.3668
X8.3582Y-4.9832
X8.3582Y-5.1168
X8.3624Y-3.2374
X8.3624Y-3.3626
X8.3624Y-3.6124
X8.3624Y-3.7376
X8.3624Y-3.9874
X8.3624Y-4.1126
X8.425Y-2.2055
X8.425Y-2.3945
X8.425Y-3.2114
X8.425Y-3.3886
X8.425Y-3.5864
X8.425Y-3.7636
X8.425Y-3.9614
X8.425Y-4.1386
X8.425Y-4.9555
X8.425Y-5.1445
X8.4876Y-3.2374
X8.4876Y-3.3626
X8.4876Y-3.6124
X8.4876Y-3.7376
X8.4876Y-3.9874
X8.4876Y-4.1126
X8.4918Y-2.2332
X8.4918Y-2.3668
X8.4918Y-4.9832
X8.4918Y-5.1168
X8.5136Y-3.3
X8.5136Y-3.675
X8.5136Y-4.05
X8.5195Y-2.3
X8.5195Y-5.05
T3
X2.8504Y-2.0157
X2.9531Y-4.65
X3.0472Y-2.0157
X3.15Y-4.65
X3.4Y-4.35
X3.4Y-4.5469
X3.69Y-2.925
X3.69Y-3.025
X3.69Y-3.125
X3.69Y-3.225
X3.69Y-3.325
X3.69Y-3.425
X3.69Y-3.525
X3.69Y-3.625
X3.69Y-3.725
X3.69Y-3.825
X3.69Y-3.925
X3.69Y-4.025
X3.69Y-4.125
X3.69Y-4.225
X3.8622Y-5.2362
X3.8622Y-5.4283
X4.29Y-2.925
X4.29Y-3.025
X4.29Y-3.125
X4.29Y-3.225
X4.29Y-3.325
X4.29Y-3.425
X4.29Y-3.525
X4.29Y-3.625
X4.29Y-3.725
X4.29Y-3.825
X4.29Y-3.925
X4.29Y-4.025
X4.29Y-4.125
X4.29Y-4.225
X4.474Y-3.3268
X4.874Y-3.3268
X5.225Y-4.6
X5.225Y-4.83
X5.625Y-4.6
X5.625Y-4.83
X5.725Y-2.85
X5.725Y-3.25
X5.725Y-3.4
X5.725Y-3.8
X5.725Y-3.95
X5.725Y-4.35
T4
X4.4486Y-5.0047
X4.4486Y-5.0834
X4.547Y-5.0047
X4.547Y-5.0834
T5
X2.8386Y-5.3386
X2.8386Y-5.4386
X2.9386Y-5.3386
X2.9386Y-5.4386
X2.9843Y-4.7795
X3.0386Y-5.3386
X3.0386Y-5.4386
X3.126Y-4.7795
X3.1386Y-5.3386
X3.1386Y-5.4386
X3.2947Y-5.435
X3.374Y-2.252
X3.437Y-5.437
X3.5748Y-5.437
X3.6693Y-2.252
X4.9232Y-5.2504
X4.9232Y-5.3504
X5.0232Y-5.2504
X5.0232Y-5.3504
X5.075Y-2.75
X5.075Y-3.4
X5.075Y-4.05
X5.1232Y-5.2504
X5.1232Y-5.3504
X5.2232Y-5.2504
X5.2232Y-5.3504
X5.475Y-2.75
X5.475Y-3.4
X5.475Y-4.05
T6
X2.8602Y-2.6122
X2.9602Y-2.6122
X2.97Y-4.2441
X2.97Y-4.5
X3.0602Y-2.6122
X3.1472Y-4.2441
X3.1472Y-4.5
X5.29Y-2.2273
X5.29Y-2.3611
X5.29Y-2.495
X5.4396Y-2.2942
X5.4396Y-2.4281
X6.7759Y-4.85
X6.7759Y-4.95
X6.7759Y-5.05
X6.776Y-2.3
X6.776Y-2.4
X6.776Y-2.5
X6.776Y-2.75
X6.776Y-2.85
X6.776Y-2.95
X6.776Y-3.8
X6.776Y-3.9
X6.776Y-4.0
X6.776Y-4.4
X6.776Y-4.5
X6.776Y-4.6
X6.7769Y-3.35
X6.7769Y-3.45
X6.7769Y-3.55
X7.324Y-2.3
X7.324Y-2.4
X7.324Y-2.5
X7.324Y-2.75
X7.324Y-2.85
X7.324Y-2.95
X7.324Y-3.35
X7.324Y-3.45
X7.324Y-3.55
X7.324Y-3.8
X7.324Y-3.9
X7.324Y-4.0
X7.324Y-4.4
X7.324Y-4.5
X7.324Y-4.6
X7.324Y-4.849
X7.324Y-4.949
X7.324Y-5.049
T7
X3.4075Y-2.7933
X3.4075Y-3.9744
X4.4204Y-1.955
X4.4907Y-3.025
X4.4907Y-3.675
X4.4907Y-4.325
X5.4046Y-1.955
X5.475Y-3.025
X5.475Y-3.675
X5.475Y-4.325
T8
X3.215Y-2.015
X3.215Y-2.615
T9
X5.54Y-5.3985
X5.7756Y-5.3985
T10
X4.2608Y-5.1901
X4.7348Y-5.1901
T11
X6.8874Y-5.4
X7.2126Y-5.4
X8.425Y-3.3
X8.425Y-3.675
X8.425Y-4.05
T12
X2.925Y-2.3
X2.925Y-5.05
X5.675Y-2.3
X5.675Y-5.05
X8.425Y-2.3
X8.425Y-5.05
T0
M30
